<svg width="20" height="15" viewBox="0 0 20 15" fill="none" xmlns="http://www.w3.org/2000/svg">
<path d="M7.80813 0.353397C7.27918 0.0889955 6.6984 0.0472324 6.16967 0.14797L4.98705 0.373296C4.12526 0.537492 3.38353 1.09095 2.98319 1.87364C1.6162 4.54618 0.582568 6.73522 0.183872 8.60245C-0.227342 10.5283 0.0240628 12.1776 1.26308 13.6789C2.08469 14.6743 3.49272 14.4731 4.22656 13.6427C4.78534 13.0104 5.4216 12.2782 6.04389 11.5566C6.45369 11.0815 7.04854 10.808 7.6736 10.808H12.3293C12.9543 10.808 13.5492 11.0815 13.959 11.5566C14.5813 12.2782 15.2175 13.0104 15.7763 13.6427C16.5102 14.4731 17.9182 14.6744 18.7398 13.6789C19.9788 12.1776 20.2302 10.5283 19.819 8.60245C19.4203 6.73522 18.3867 4.54618 17.0197 1.87364C16.6194 1.09095 15.8776 0.537492 15.0158 0.373296L13.8332 0.14797C13.3045 0.0472325 12.7237 0.0889954 12.1948 0.353398C12.0511 0.425196 11.9038 0.502374 11.7553 0.582839C11.4001 0.775341 11.019 0.879518 10.6423 0.879518H9.36063C8.9839 0.879518 8.60279 0.775341 8.24758 0.582839C8.0991 0.502374 7.95177 0.425197 7.80813 0.353397ZM6.43703 1.5512C6.71237 1.49874 6.96625 1.52956 7.16945 1.63113C7.29664 1.69471 7.42982 1.76442 7.56697 1.83874C8.10651 2.13114 8.71966 2.30799 9.36063 2.30799H10.6423C11.2832 2.30799 11.8964 2.13113 12.4359 1.83874C12.5731 1.76442 12.7062 1.69471 12.8334 1.63113C13.0366 1.52956 13.2905 1.49874 13.5659 1.5512L14.7485 1.77652C15.1791 1.85856 15.5492 2.13554 15.7479 2.52414C17.1282 5.22257 18.069 7.24743 18.422 8.90074C18.7625 10.4954 18.5429 11.6733 17.6381 12.7696C17.5508 12.8754 17.4316 12.9249 17.29 12.9185C17.1403 12.9117 16.9729 12.8396 16.8467 12.6968C16.2933 12.0705 15.6612 11.3431 15.0407 10.6237C14.3612 9.83573 13.3723 9.37952 12.3293 9.37952H7.6736C6.63063 9.37952 5.64171 9.83573 4.96214 10.6237C4.3417 11.3431 3.70959 12.0705 3.15616 12.6968C3.03001 12.8396 2.86264 12.9117 2.71288 12.9185C2.57126 12.9249 2.45213 12.8754 2.36478 12.7696C1.45999 11.6733 1.24035 10.4954 1.58085 8.90074C1.93387 7.24743 2.87471 5.22257 4.25495 2.52414C4.45372 2.13554 4.82381 1.85856 5.25441 1.77652L6.43703 1.5512ZM10.0012 5.84613C10.5535 5.84613 11.0012 5.39842 11.0012 4.84613C11.0012 4.29385 10.5535 3.84613 10.0012 3.84613C9.44894 3.84613 9.00122 4.29385 9.00122 4.84613C9.00122 5.39842 9.44894 5.84613 10.0012 5.84613Z" fill="#6A6D6E"/>
</svg>
