<svg width="17" height="21" viewBox="0 0 17 21" fill="none" xmlns="http://www.w3.org/2000/svg">
<path d="M3 4.84619C3 4.29391 3.44772 3.84619 4 3.84619H12C12.5523 3.84619 13 4.29391 13 4.84619V6.84619C13 7.39848 12.5523 7.84619 12 7.84619H4C3.44772 7.84619 3 7.39848 3 6.84619V4.84619ZM4.5 6.34619H11.5V5.34619H4.5V6.34619ZM0 3.34619C0 1.96548 1.11929 0.846191 2.5 0.846191H14C15.3807 0.846191 16.5 1.96548 16.5 3.34619V17.5962C16.5 18.0104 16.1642 18.3462 15.75 18.3462H1.5C1.5 18.8985 1.94772 19.3462 2.5 19.3462H15.75C16.1642 19.3462 16.5 19.682 16.5 20.0962C16.5 20.5104 16.1642 20.8462 15.75 20.8462H2.5C1.11929 20.8462 0 19.7269 0 18.3462V3.34619ZM1.5 16.8462H15V3.34619C15 2.79391 14.5523 2.34619 14 2.34619H2.5C1.94772 2.34619 1.5 2.79391 1.5 3.34619V16.8462Z" fill="#8F4ABF"/>
</svg>
