<svg width="18" height="19" viewBox="0 0 18 19" fill="none" xmlns="http://www.w3.org/2000/svg">
<path d="M9 4.84619C9.41421 4.84619 9.75 5.18198 9.75 5.59619V9.09619H13.25C13.6642 9.09619 14 9.43198 14 9.84619C14 10.2604 13.6642 10.5962 13.25 10.5962H9.75V14.0962C9.75 14.5104 9.41421 14.8462 9 14.8462C8.58579 14.8462 8.25 14.5104 8.25 14.0962V10.5962H4.75C4.33579 10.5962 4 10.2604 4 9.84619C4 9.43198 4.33579 9.09619 4.75 9.09619H8.25V5.59619C8.25 5.18198 8.58579 4.84619 9 4.84619ZM0 4.09619C0 2.30127 1.45507 0.846191 3.25 0.846191H14.75C16.5449 0.846191 18 2.30127 18 4.09619V15.5962C18 17.3911 16.5449 18.8462 14.75 18.8462H3.25C1.45507 18.8462 0 17.3911 0 15.5962V4.09619ZM3.25 2.34619C2.2835 2.34619 1.5 3.12969 1.5 4.09619V15.5962C1.5 16.5627 2.2835 17.3462 3.25 17.3462H14.75C15.7165 17.3462 16.5 16.5627 16.5 15.5962V4.09619C16.5 3.12969 15.7165 2.34619 14.75 2.34619H3.25Z" fill="#8F4ABF"/>
</svg>
