<svg width="20" height="21" viewBox="0 0 20 21" fill="none" xmlns="http://www.w3.org/2000/svg">
<path d="M10.9411 20.8016C13.1782 20.5914 15.3581 19.6298 17.0711 17.9168C20.9763 14.0115 20.9763 7.67988 17.0711 3.77463C13.1658 -0.130608 6.83417 -0.130608 2.92893 3.77463C-0.976311 7.67988 -0.976311 14.0115 2.92893 17.9168C5.03831 20.0261 7.8556 20.9962 10.6161 20.8268C10.7222 20.8421 10.8329 20.8347 10.9411 20.8016ZM1.57715 9.6997C1.78643 8.153 2.42146 6.65287 3.48227 5.38879L8.93924 10.8458L7.8508 11.9342C6.79932 11.0829 5.62684 10.6261 4.50965 10.3261C3.85941 10.1515 3.21389 10.0266 2.62337 9.91238L2.60668 9.90915C2.2397 9.83815 1.89736 9.77167 1.57715 9.6997ZM1.50818 11.2197C1.77405 11.2759 2.04285 11.3279 2.3089 11.3794L2.32176 11.3818C2.92466 11.4985 3.52418 11.6146 4.12062 11.7748C5.0742 12.0309 5.98246 12.3905 6.78269 13.0023L3.48232 16.3027C2.24568 14.8291 1.58763 13.0347 1.50818 11.2197ZM7.84663 14.0597C8.52152 14.9219 8.88642 15.8661 9.14404 16.8331C9.26892 17.3018 9.3651 17.7608 9.46232 18.2247C9.48979 18.3558 9.51735 18.4873 9.54568 18.6196C9.59695 18.8591 9.65071 19.1009 9.71085 19.3408C7.86698 19.2784 6.03954 18.6193 4.54298 17.3633L7.84663 14.0597ZM11.2397 19.2553C11.1584 18.9653 11.0861 18.6498 11.0124 18.3056C10.987 18.1868 10.9614 18.0644 10.9351 17.939C10.8368 17.4697 10.7298 16.9587 10.5935 16.4469C10.2929 15.3188 9.83225 14.1099 8.9136 12.9927L9.9999 11.9064L15.4569 17.3634C14.2184 18.4028 12.7532 19.0334 11.2397 19.2553ZM11.0606 10.8458L12.2716 9.63468C13.3855 10.5771 14.5529 11.094 15.6371 11.4608C16.0845 11.6122 16.5336 11.7428 16.9482 11.8634C17.1068 11.9095 17.2605 11.9542 17.4073 11.998C17.7589 12.1032 18.0793 12.2058 18.3721 12.3187C18.1217 13.7493 17.5035 15.128 16.5176 16.3028L11.0606 10.8458ZM17.8368 10.5609C17.6683 10.5105 17.5011 10.4619 17.3352 10.4136C16.9319 10.2964 16.5325 10.1803 16.1179 10.04C15.1737 9.7205 14.2296 9.29941 13.3367 8.56958L16.5176 5.38868C17.8221 6.94308 18.4828 8.85442 18.4997 10.7704C18.2794 10.6956 18.0574 10.6268 17.8368 10.5609ZM15.457 4.32802L12.276 7.50897C11.5459 6.6159 11.1247 5.67166 10.8052 4.72726C10.6649 4.31262 10.5487 3.91321 10.4315 3.5099L10.4311 3.5086C10.3829 3.34294 10.3346 3.17662 10.2843 3.00831C10.2184 2.78793 10.1497 2.5661 10.075 2.34603C11.991 2.36282 13.9025 3.02349 15.457 4.32802ZM9.3843 5.20803C9.75122 6.29241 10.2682 7.46002 11.2109 8.57406L9.9999 9.7851L4.54291 4.32811C5.71764 3.34224 7.09624 2.72409 8.52663 2.47364C8.63949 2.76634 8.74206 3.08646 8.84711 3.4379C8.89103 3.58483 8.93576 3.73868 8.98194 3.89748C9.10252 4.31216 9.23293 4.76064 9.3843 5.20803Z" fill="#8F4ABF"/>
</svg>
