<svg width="20" height="15" viewBox="0 0 20 15" fill="none" xmlns="http://www.w3.org/2000/svg">
<path d="M7.80789 0.353397C7.27894 0.0889955 6.69815 0.0472324 6.16943 0.14797L4.9868 0.373296C4.12502 0.537492 3.38329 1.09095 2.98294 1.87364C1.61595 4.54618 0.582324 6.73522 0.183628 8.60245C-0.227586 10.5283 0.0238186 12.1776 1.26283 13.6789C2.08444 14.6743 3.49248 14.4731 4.22632 13.6427C4.7851 13.0104 5.42135 12.2782 6.04365 11.5566C6.45345 11.0815 7.0483 10.808 7.67335 10.808H12.329C12.9541 10.808 13.549 11.0815 13.9588 11.5566C14.581 12.2782 15.2173 13.0104 15.7761 13.6427C16.5099 14.4731 17.918 14.6744 18.7396 13.6789C19.9786 12.1776 20.23 10.5283 19.8188 8.60245C19.4201 6.73522 18.3864 4.54618 17.0195 1.87364C16.6191 1.09095 15.8774 0.537492 15.0156 0.373296L13.833 0.14797C13.3042 0.0472325 12.7235 0.0889954 12.1945 0.353398C12.0509 0.425196 11.9035 0.502374 11.7551 0.582839C11.3999 0.775341 11.0187 0.879518 10.642 0.879518H9.36038C8.98365 0.879518 8.60255 0.775341 8.24734 0.582839C8.09886 0.502374 7.95153 0.425197 7.80789 0.353397ZM6.43679 1.5512C6.71213 1.49874 6.966 1.52956 7.1692 1.63113C7.2964 1.69471 7.42958 1.76442 7.56672 1.83874C8.10626 2.13114 8.71941 2.30799 9.36038 2.30799H10.642C11.283 2.30799 11.8961 2.13113 12.4357 1.83874C12.5728 1.76442 12.706 1.69471 12.8332 1.63113C13.0364 1.52956 13.2903 1.49874 13.5656 1.5512L14.7482 1.77652C15.1788 1.85856 15.5489 2.13554 15.7477 2.52414C17.1279 5.22257 18.0688 7.24743 18.4218 8.90074C18.7623 10.4954 18.5427 11.6733 17.6379 12.7696C17.5505 12.8754 17.4314 12.9249 17.2898 12.9185C17.14 12.9117 16.9726 12.8396 16.8465 12.6968C16.2931 12.0705 15.6609 11.3431 15.0405 10.6237C14.3609 9.83573 13.372 9.37952 12.329 9.37952H7.67335C6.63038 9.37952 5.64147 9.83573 4.9619 10.6237C4.34145 11.3431 3.70935 12.0705 3.15592 12.6968C3.02976 12.8396 2.86239 12.9117 2.71263 12.9185C2.57102 12.9249 2.45189 12.8754 2.36454 12.7696C1.45974 11.6733 1.2401 10.4954 1.58061 8.90074C1.93362 7.24743 2.87447 5.22257 4.2547 2.52414C4.45348 2.13554 4.82357 1.85856 5.25416 1.77652L6.43679 1.5512ZM10.001 5.84613C10.5533 5.84613 11.001 5.39842 11.001 4.84613C11.001 4.29385 10.5533 3.84613 10.001 3.84613C9.44869 3.84613 9.00098 4.29385 9.00098 4.84613C9.00098 5.39842 9.44869 5.84613 10.001 5.84613Z" fill="#8F4ABF"/>
</svg>
