<svg width="18" height="21" viewBox="0 0 18 21" fill="none" xmlns="http://www.w3.org/2000/svg">
<path d="M4.5 8.84619C4.5 8.43198 4.16421 8.09619 3.75 8.09619C3.33579 8.09619 3 8.43198 3 8.84619V15.8462C3 16.2604 3.33579 16.5962 3.75 16.5962C4.16421 16.5962 4.5 16.2604 4.5 15.8462V8.84619ZM7.5 8.84619C7.5 8.43198 7.16421 8.09619 6.75 8.09619C6.33579 8.09619 6 8.43198 6 8.84619V15.8462C6 16.2604 6.33579 16.5962 6.75 16.5962C7.16421 16.5962 7.5 16.2604 7.5 15.8462V8.84619ZM10.5 8.84619C10.5 8.43198 10.1642 8.09619 9.75 8.09619C9.33579 8.09619 9 8.43198 9 8.84619V15.8462C9 16.2604 9.33579 16.5962 9.75 16.5962C10.1642 16.5962 10.5 16.2604 10.5 15.8462V8.84619ZM0 4.09619C0 2.30127 1.45507 0.846191 3.25 0.846191H10.25C12.0449 0.846191 13.5 2.30127 13.5 4.09619V4.84619H14.75C16.5449 4.84619 18 6.30127 18 8.09619V13.5962C18 15.3911 16.5449 16.8462 14.75 16.8462H13.5V18.5962C13.5 19.8388 12.4926 20.8462 11.25 20.8462H2.25C1.00736 20.8462 0 19.8388 0 18.5962V4.09619ZM12 6.34619H1.5V18.5962C1.5 19.0104 1.83579 19.3462 2.25 19.3462H11.25C11.6642 19.3462 12 19.0104 12 18.5962V6.34619ZM13.5 15.3462H14.75C15.7165 15.3462 16.5 14.5627 16.5 13.5962V8.09619C16.5 7.12969 15.7165 6.34619 14.75 6.34619H13.5V15.3462ZM12 4.09619C12 3.12969 11.2165 2.34619 10.25 2.34619H3.25C2.2835 2.34619 1.5 3.12969 1.5 4.09619V4.84619H12V4.09619Z" fill="#8F4ABF"/>
</svg>
