<svg width="20" height="21" viewBox="0 0 20 21" fill="none" xmlns="http://www.w3.org/2000/svg">
<path d="M2.5 1.59619C2.5 1.18198 2.16421 0.846191 1.75 0.846191C1.33579 0.846191 1 1.18198 1 1.59619C1 2.86685 1.92806 3.5134 2.50571 3.91582L2.5699 3.96062C3.24985 4.43658 3.5 4.66508 3.5 5.09619C3.5 5.51041 3.83579 5.84619 4.25 5.84619C4.66421 5.84619 5 5.51041 5 5.09619C5 3.82554 4.07194 3.17899 3.49429 2.77656L3.4301 2.73177C2.75015 2.2558 2.5 2.02731 2.5 1.59619ZM0 8.66762C0 7.66167 0.815481 6.84619 1.82143 6.84619H14.1786C15.1845 6.84619 16 7.66167 16 8.66762V9.34619H16.75C18.5449 9.34619 20 10.8013 20 12.5962C20 14.3911 18.5449 15.8462 16.75 15.8462H15.4185C14.2317 18.778 11.3574 20.8462 8 20.8462C3.58172 20.8462 0 17.2645 0 12.8462V8.66762ZM14.5 8.66762C14.5 8.4901 14.3561 8.34619 14.1786 8.34619H1.82143C1.64391 8.34619 1.5 8.4901 1.5 8.66762V12.8462C1.5 16.436 4.41015 19.3462 8 19.3462C11.5899 19.3462 14.5 16.436 14.5 12.8462V8.66762ZM16.75 10.8462H16V12.8462C16 13.3589 15.9518 13.8603 15.8596 14.3462H16.75C17.7165 14.3462 18.5 13.5627 18.5 12.5962C18.5 11.6297 17.7165 10.8462 16.75 10.8462ZM5.75 0.846191C6.16421 0.846191 6.5 1.18198 6.5 1.59619C6.5 2.02731 6.75015 2.2558 7.4301 2.73177L7.49429 2.77656C8.07194 3.17899 9 3.82554 9 5.09619C9 5.51041 8.66421 5.84619 8.25 5.84619C7.83579 5.84619 7.5 5.51041 7.5 5.09619C7.5 4.66508 7.24985 4.43658 6.5699 3.96062L6.50571 3.91582C5.92806 3.5134 5 2.86685 5 1.59619C5 1.18198 5.33579 0.846191 5.75 0.846191ZM10.5 1.59619C10.5 1.18198 10.1642 0.846191 9.75 0.846191C9.33579 0.846191 9 1.18198 9 1.59619C9 2.86685 9.92806 3.5134 10.5057 3.91582L10.5699 3.96062C11.2499 4.43658 11.5 4.66508 11.5 5.09619C11.5 5.51041 11.8358 5.84619 12.25 5.84619C12.6642 5.84619 13 5.51041 13 5.09619C13 3.82554 12.0719 3.17899 11.4943 2.77656L11.4301 2.73177C10.7501 2.2558 10.5 2.02731 10.5 1.59619Z" fill="#8F4ABF"/>
</svg>
