<svg width="20" height="18" viewBox="0 0 20 18" fill="none" xmlns="http://www.w3.org/2000/svg">
<path d="M9.21967 1.06537C9.50545 0.779594 9.96628 0.771651 10.2617 1.04741L12.0181 2.68672C13.2959 3.87929 14.7188 4.90617 16.2532 5.74312C16.685 5.97864 16.9802 6.40414 17.0498 6.89104L18.4005 16.3457H19.25C19.6642 16.3457 20 16.6815 20 17.0957C20 17.5099 19.6642 17.8457 19.25 17.8457H0.75C0.335786 17.8457 0 17.5099 0 17.0957C0 16.6815 0.335786 16.3457 0.75 16.3457H1.59953L2.95533 6.85511C3.0203 6.40031 3.28676 5.99901 3.6807 5.76264C5.07826 4.9241 6.36771 3.91733 7.52017 2.76487L9.21967 1.06537ZM3.11476 16.3457H5.24627C6.81781 14.179 8.00503 11.757 8.755 9.1857L9.28 7.3857C9.37333 7.0657 9.66667 6.8457 10 6.8457C10.3333 6.8457 10.6267 7.0657 10.72 7.3857L11.245 9.1857C11.995 11.757 13.1822 14.179 14.7537 16.3457H16.8852L15.5649 7.10317C15.5623 7.08484 15.5511 7.06883 15.5349 7.05996C13.8899 6.1627 12.3645 5.06182 10.9947 3.7833L9.76797 2.63839L8.58083 3.82553C7.34165 5.06471 5.95517 6.14724 4.45244 7.04888C4.44582 7.05285 4.44134 7.0596 4.44025 7.06724L3.11476 16.3457ZM12.9293 16.3457C11.6793 14.4557 10.6934 12.4023 10 10.2424C9.30662 12.4023 8.3207 14.4557 7.07071 16.3457H12.9293Z" fill="#6A6D6E"/>
</svg>
