<svg width="392" height="73" viewBox="0 0 392 73" fill="none" xmlns="http://www.w3.org/2000/svg">
<path d="M-123 36.54H125.12C129.66 36.54 132.93 33.21 132.93 28.6C132.93 23.99 129.67 20.6 125.12 20.6C120.57 20.6 117.38 23.93 117.38 28.6C117.38 30.39 117.76 31.8 118.6 33.08H113.29C112.52 31.86 112.14 30.33 112.14 28.6C112.14 21.18 117.64 15.87 125.13 15.87C132.62 15.87 138.18 21.18 138.18 28.6C138.18 36.02 132.68 41.27 125.13 41.27H-123" fill="#F8FAF9"/>
<path d="M161.03 41.28C155.27 40.9 150.73 36.54 150.73 26.18V1.21997H155.98V25.03C155.98 32.2 157.96 35.4 161.04 36.55V41.29L161.03 41.28Z" fill="#F8FAF9"/>
<path d="M160.9 41.28V36.54H168.84C180.81 36.54 186.95 32.06 186.95 23.23V20.48H168.14V15.74H192.27V23.23C192.27 34.81 184.14 41.28 169.49 41.28H160.91H160.9ZM187.65 68.22H209.54V72.96H185.29C183.43 72.96 182.41 71.94 182.41 70.08V57.22H203.08V51.14H182.41V46.4H205.45C207.31 46.4 208.33 47.42 208.33 49.28V61.89H187.66V68.23L187.65 68.22ZM214.14 41.28C208.38 40.9 203.84 36.54 203.84 26.18V1.21997H209.09V25.03C209.09 32.2 211.07 35.4 214.14 36.55V41.29V41.28Z" fill="#F8FAF9"/>
<path d="M529.23 41.28H214.01V36.54H236.86V27.96H228.61C226.75 27.96 225.73 26.94 225.73 25.08V11.51H247.55V4.73H225.73V0H249.92C251.78 0 252.8 1.02 252.8 2.88V16.19H230.98V23.23H253.44V27.97H242.11V36.55H529.23" fill="#F8FAF9"/>
</svg>
