<svg width="69" height="64" viewBox="0 0 69 64" fill="none" xmlns="http://www.w3.org/2000/svg">
<g clip-path="url(#clip0_829_37372)">
<path d="M3.80165 0.235579C3.72928 0.259478 3.6569 0.286791 3.58782 0.317519C3.51544 0.344832 3.44307 0.378974 3.37398 0.413116C3.3049 0.450672 3.23581 0.484814 3.16673 0.525784C3.12725 0.546269 3.08777 0.570169 3.0483 0.594068C2.99895 0.621381 2.95289 0.652109 2.90683 0.682837C2.84104 0.727221 2.77524 0.771605 2.71274 0.819404C2.40021 1.05157 2.10084 1.32812 1.83108 1.65588C1.72252 1.78562 1.62382 1.91877 1.53171 2.05875C1.48236 2.12704 1.4363 2.19873 1.39354 2.27043C1.30142 2.41724 1.21589 2.56747 1.14022 2.72452C1.10075 2.79963 1.06456 2.87816 1.02837 2.9601C0.998764 3.02838 0.969156 3.09666 0.942838 3.16836C0.752031 3.63269 0.61715 4.12775 0.544775 4.62963C0.531616 4.70133 0.521747 4.76961 0.515167 4.8379C0.492139 5.01202 0.478979 5.18273 0.4724 5.36027C0.46911 5.45586 0.46582 5.55488 0.46582 5.65047C0.46582 5.74607 0.46911 5.84508 0.4724 5.94068C0.478979 6.1148 0.492139 6.29234 0.515167 6.46305C0.521747 6.53816 0.534906 6.61327 0.544775 6.68838C0.574383 6.87958 0.61386 7.06736 0.659917 7.25855C0.679656 7.34732 0.702684 7.43268 0.729003 7.51803C0.752031 7.6068 0.778349 7.68874 0.807957 7.77751C0.837565 7.85945 0.867173 7.9448 0.900071 8.02674C0.995474 8.27598 1.10733 8.5218 1.23563 8.75397C1.27182 8.82566 1.31129 8.89395 1.35406 8.96223C1.40999 9.05783 1.4692 9.15001 1.53171 9.24219C1.62382 9.38217 1.72252 9.51191 1.83108 9.64165C1.94622 9.78163 2.06465 9.90796 2.18637 10.0275C2.24559 10.0923 2.3081 10.147 2.3706 10.2016C2.43311 10.2562 2.4989 10.3142 2.5647 10.3655C2.6272 10.4167 2.693 10.4645 2.7588 10.5123C2.82459 10.5601 2.89368 10.6079 2.95947 10.6488C3.02856 10.6932 3.09764 10.7308 3.16673 10.7717C3.25555 10.823 3.34438 10.8673 3.43649 10.9117C3.48584 10.9356 3.53518 10.9595 3.58782 10.98C3.6569 11.0107 3.72928 11.0415 3.80165 11.062C4.07142 11.161 4.35434 11.2224 4.62739 11.2668C4.65371 11.2702 4.67673 11.277 4.70305 11.2805C4.76227 11.2805 4.81491 11.2839 4.86754 11.2873C4.87412 11.2873 4.8807 11.2873 4.88399 11.2873C4.87741 11.2873 4.87083 11.2873 4.86754 11.2873C4.95637 11.2907 5.0419 11.2941 5.12414 11.2941H23.7772C26.3498 11.2941 28.4388 8.76421 28.4388 5.64706C28.4388 2.52991 26.3531 0 23.7805 0H5.12743C4.99255 0 4.85767 0.0102425 4.70634 0.0136567C4.41026 0.0614553 4.09773 0.122911 3.80165 0.232164V0.235579Z" fill="#DCCBEC"/>
<path d="M69 34.0356C69 34.0073 68.9966 33.979 68.9966 33.9507C69 33.7347 69 33.5931 69 33.5471H68.9764C68.9764 33.5153 68.9764 33.4869 68.973 33.4551C68.9561 33.2993 68.9358 33.1365 68.9054 32.9807C68.8987 32.9418 68.8953 32.9028 68.8852 32.8674C68.8683 32.7825 68.8514 32.6975 68.8278 32.6161C68.8041 32.5241 68.7805 32.4356 68.7534 32.3471C68.6994 32.1701 68.642 31.9966 68.5711 31.8267C68.5407 31.7418 68.5035 31.6568 68.463 31.5754C68.4258 31.4904 68.3853 31.4125 68.3448 31.3311C68.3043 31.2497 68.2604 31.1718 68.2131 31.0939C68.0037 30.7293 67.7504 30.3824 67.4565 30.0674L67.3653 29.9718L65.8219 28.354L63.5759 26L61.33 28.354L59.7831 29.9718C59.8912 29.8621 60.006 29.7559 60.1242 29.6532C59.9891 29.77 59.8642 29.8904 59.7426 30.0178C59.6075 30.1594 59.4859 30.301 59.3711 30.4497C59.3103 30.5205 59.2562 30.5984 59.2022 30.6727C59.1482 30.7506 59.0941 30.8285 59.0468 30.9099C58.9962 30.9877 58.9523 31.0656 58.905 31.147C58.8577 31.2285 58.8138 31.3099 58.7733 31.3913C58.7327 31.4763 58.6922 31.5612 58.6551 31.6426C58.6179 31.7276 58.5808 31.8126 58.547 31.894C58.5132 31.9789 58.4828 32.0674 58.4558 32.1559C58.4254 32.2409 58.3984 32.3294 58.3747 32.4179C58.3207 32.602 58.2802 32.7896 58.243 32.9807C58.1957 33.2321 58.1653 33.4869 58.1552 33.7418C58.1518 33.8409 58.1485 33.94 58.1485 34.0356C58.1485 34.1312 58.1518 34.2339 58.1552 34.3294C58.1552 34.3507 58.1586 34.3719 58.162 34.3932C58.037 36.6304 57.3278 43.4447 53.3661 47.6395C51.0931 50.0467 48.0501 51.2149 44.0681 51.2149C40.3665 51.2149 38.1577 48.5918 34.5743 43.958C30.5012 38.6942 24.9251 31.4833 14.6511 33.3241C8.47389 34.4321 3.09371 40.2092 1.56376 47.3705C-0.0269899 54.8327 2.91643e-05 63.2895 2.91643e-05 63.6471L10.8077 63.5869C10.8077 63.5125 10.7908 56.0291 12.1113 49.8449C12.7733 46.7439 15.0699 44.7439 16.4749 44.4925C20.1664 43.827 22.0679 45.7775 26.1781 51.0945C30.1229 56.1955 35.0336 62.5461 44.0681 62.5461C50.985 62.5461 56.6962 60.2133 61.0429 55.615C67.8787 48.3829 68.8413 37.7667 68.9764 34.5206C68.9899 34.3613 68.9966 34.202 68.9966 34.0427L69 34.0356Z" fill="url(#paint0_linear_829_37372)"/>
<path d="M47.3147 26.5265C47.3383 26.6044 47.3654 26.6823 47.3959 26.7567C47.423 26.8346 47.4568 26.9125 47.4906 26.9869C47.5279 27.0613 47.5617 27.1356 47.6023 27.21C47.6226 27.2525 47.6463 27.295 47.67 27.3375C47.6971 27.3906 47.7276 27.4402 47.758 27.4898C47.802 27.5606 47.846 27.6315 47.8934 27.6987C48.1236 28.0352 48.3977 28.3575 48.7226 28.6479C48.8512 28.7648 48.9832 28.871 49.122 28.9702C49.1897 29.0233 49.2607 29.0729 49.3318 29.1189C49.4774 29.2181 49.6263 29.3102 49.782 29.3916C49.8564 29.4341 49.9343 29.4731 50.0155 29.512C50.0832 29.5439 50.1509 29.5758 50.222 29.6041C50.6822 29.8095 51.173 29.9547 51.6705 30.0326C51.7416 30.0468 51.8093 30.0574 51.877 30.0645C52.0496 30.0893 52.2188 30.1035 52.3948 30.1106C52.4896 30.1141 52.5877 30.1176 52.6825 30.1176C52.7773 30.1176 52.8754 30.1141 52.9702 30.1106C53.1428 30.1035 53.3188 30.0893 53.488 30.0645C53.5625 30.0574 53.6369 30.0433 53.7114 30.0326C53.9009 30.0008 54.0871 29.9583 54.2766 29.9087C54.3646 29.8874 54.4492 29.8626 54.5338 29.8343C54.6218 29.8095 54.703 29.7812 54.791 29.7493C54.8723 29.7174 54.9569 29.6856 55.0381 29.6502C55.2852 29.5475 55.5289 29.427 55.759 29.2889C55.8301 29.25 55.8978 29.2075 55.9655 29.1614C56.0602 29.1012 56.1516 29.0375 56.243 28.9702C56.3818 28.871 56.5104 28.7648 56.639 28.6479C56.7777 28.5239 56.903 28.3964 57.0214 28.2654C57.0857 28.2016 57.1399 28.1344 57.194 28.0671C57.2482 27.9998 57.3057 27.9289 57.3565 27.8581C57.4073 27.7908 57.4546 27.72 57.502 27.6492C57.5494 27.5783 57.5968 27.504 57.6374 27.4331C57.6814 27.3587 57.7186 27.2844 57.7593 27.21C57.81 27.1144 57.854 27.0188 57.898 26.9196C57.9217 26.8665 57.9454 26.8133 57.9657 26.7567C57.9962 26.6823 58.0266 26.6044 58.0469 26.5265C58.1451 26.2361 58.206 25.9315 58.25 25.6375C58.2534 25.6092 58.2602 25.5844 58.2635 25.5561C58.2635 25.4923 58.2669 25.4357 58.2703 25.379C58.2703 25.3719 58.2703 25.3648 58.2703 25.3613C58.2703 25.3684 58.2703 25.3755 58.2703 25.379C58.2737 25.2834 58.2771 25.1913 58.2771 25.1028V5.01843C58.2771 2.24891 55.7692 0 52.6791 0C49.589 0 47.0879 2.24891 47.0879 5.01843V25.0992C47.0879 25.2444 47.098 25.3896 47.1014 25.5525C47.1488 25.8713 47.2097 26.2077 47.318 26.5265H47.3147Z" fill="#F8FAF9"/>
<path d="M18.4094 26.5265C18.4331 26.6044 18.4601 26.6823 18.4906 26.7567C18.5177 26.8346 18.5515 26.9125 18.5854 26.9869C18.6226 27.0613 18.6564 27.1356 18.6971 27.21C18.7174 27.2525 18.7411 27.295 18.7648 27.3375C18.7918 27.3906 18.8223 27.4402 18.8528 27.4898C18.8967 27.5606 18.9407 27.6315 18.9881 27.6987C19.2183 28.0352 19.4924 28.3575 19.8173 28.6479C19.9459 28.7648 20.0779 28.871 20.2167 28.9702C20.2844 29.0233 20.3555 29.0729 20.4265 29.1189C20.5721 29.2181 20.721 29.3102 20.8767 29.3916C20.9511 29.4341 21.029 29.4731 21.1102 29.512C21.1779 29.5439 21.2456 29.5758 21.3167 29.6041C21.777 29.8095 22.2677 29.9547 22.7652 30.0326C22.8363 30.0468 22.904 30.0574 22.9717 30.0645C23.1443 30.0893 23.3135 30.1035 23.4895 30.1106C23.5843 30.1141 23.6824 30.1176 23.7772 30.1176C23.872 30.1176 23.9701 30.1141 24.0649 30.1106C24.2375 30.1035 24.4135 30.0893 24.5827 30.0645C24.6572 30.0574 24.7316 30.0433 24.8061 30.0326C24.9956 30.0008 25.1818 29.9583 25.3713 29.9087C25.4593 29.8874 25.5439 29.8626 25.6285 29.8343C25.7165 29.8095 25.7978 29.7812 25.8858 29.7493C25.967 29.7174 26.0516 29.6856 26.1328 29.6502C26.3799 29.5475 26.6236 29.427 26.8537 29.2889C26.9248 29.25 26.9925 29.2075 27.0602 29.1614C27.155 29.1012 27.2463 29.0375 27.3377 28.9702C27.4765 28.871 27.6051 28.7648 27.7337 28.6479C27.8725 28.5239 27.9977 28.3964 28.1162 28.2654C28.1805 28.2016 28.2346 28.1344 28.2888 28.0671C28.3429 27.9998 28.4005 27.9289 28.4512 27.8581C28.502 27.7908 28.5494 27.72 28.5968 27.6492C28.6441 27.5783 28.6915 27.504 28.7321 27.4331C28.7761 27.3587 28.8134 27.2844 28.854 27.21C28.9047 27.1144 28.9487 27.0188 28.9927 26.9196C29.0164 26.8665 29.0401 26.8133 29.0604 26.7567C29.0909 26.6823 29.1214 26.6044 29.1417 26.5265C29.2398 26.2361 29.3007 25.9315 29.3447 25.6375C29.3481 25.6092 29.3549 25.5844 29.3583 25.5561C29.3583 25.4923 29.3617 25.4357 29.365 25.379C29.365 25.3719 29.365 25.3648 29.365 25.3613C29.365 25.3684 29.365 25.3755 29.365 25.379C29.3684 25.2834 29.3718 25.1913 29.3718 25.1028V5.01843C29.3718 2.24891 26.8639 0 23.7738 0C20.6838 0 18.1826 2.24891 18.1826 5.01843V25.0992C18.1826 25.2444 18.1928 25.3896 18.1962 25.5525C18.2435 25.8713 18.3045 26.2077 18.4128 26.5265H18.4094Z" fill="#F8FAF9"/>
</g>
<defs>
<linearGradient id="paint0_linear_829_37372" x1="62.3193" y1="26" x2="2.38027" y2="58.9269" gradientUnits="userSpaceOnUse">
<stop stop-color="#DCCBEC"/>
<stop offset="1" stop-color="#F8FAF9"/>
</linearGradient>
<clipPath id="clip0_829_37372">
<rect width="69" height="64" fill="white"/>
</clipPath>
</defs>
</svg>
