<svg width="392" height="62" viewBox="0 0 392 62" fill="none" xmlns="http://www.w3.org/2000/svg">
<path d="M-66 35.0832H143.721C150.137 35.0832 154.812 30.5702 154.812 24.315C154.812 18.0598 150.137 13.4873 143.721 13.4873C137.304 13.4873 132.681 18.0003 132.681 24.315C132.681 25.7853 133.004 27.0857 133.658 28.1225H138.171C137.465 27.0347 137.134 25.8363 137.134 24.315C137.134 20.346 139.905 17.5158 143.712 17.5158C147.52 17.5158 150.35 20.346 150.35 24.315C150.35 28.284 147.579 31.0632 143.712 31.0632H-66" fill="#F8FAF9"/>
<path d="M200.774 19.7434V13.3776H180.266V17.4061H196.253V19.7434C196.253 27.248 191.034 31.0555 180.861 31.0555H174.223C171.614 30.0781 169.923 27.3584 169.923 21.2647V1.03711H165.461V22.2506C165.461 30.996 169.268 34.7016 174.113 35.0755L181.405 35.084C193.865 35.084 200.766 29.5937 200.766 19.7434H200.774Z" fill="#F8FAF9"/>
<path d="M196.856 52.5917H214.424V41.8745C214.424 40.2937 213.557 39.4268 211.976 39.4268H192.395V43.4553H209.962V48.6227H192.395V59.5523C192.395 61.1331 193.261 62 194.842 62H215.452V57.9715H196.848V52.5832L196.856 52.5917Z" fill="#F8FAF9"/>
<path d="M455.692 31.0553H243.141V23.7631H252.77V19.7346H233.681V13.7513H252.226V2.44771C252.226 0.866896 251.359 0 249.779 0H229.219V4.02851H247.764V9.79082H229.219V21.3239C229.219 22.9047 230.086 23.7716 231.667 23.7716H238.687V31.0638H219.378C216.768 30.0864 215.077 27.3667 215.077 21.2729V1.03688H210.615V22.2503C210.615 30.9958 214.423 34.7013 219.267 35.0753L455.692 35.0838" fill="#F8FAF9"/>
</svg>
