<svg width="24" height="32" viewBox="0 0 24 32" fill="none" xmlns="http://www.w3.org/2000/svg">
<g clip-path="url(#clip0_869_11255)">
<g filter="url(#filter0_d_869_11255)">
<g opacity="0.8">
<path d="M22 12C22 15.0134 20.6672 17.7154 18.5588 19.5488C16.8031 21.0756 14.5095 22 12 22C9.49052 22 7.19694 21.0756 5.44117 19.5488C3.33285 17.7154 2 15.0134 2 12C2 6.47715 6.47715 2 12 2C17.5228 2 22 6.47715 22 12Z" fill="#B083D3"/>
<path d="M18.5588 19.5488L19.051 20.1148L18.5588 19.5488ZM5.44117 19.5488L5.93331 18.9829L5.44117 19.5488ZM2.75 12C2.75 6.89137 6.89137 2.75 12 2.75V1.25C6.06294 1.25 1.25 6.06294 1.25 12H2.75ZM12 2.75C17.1086 2.75 21.25 6.89137 21.25 12H22.75C22.75 6.06294 17.9371 1.25 12 1.25V2.75ZM21.25 12C21.25 14.7872 20.0182 17.2859 18.0667 18.9829L19.051 20.1148C21.3161 18.145 22.75 15.2395 22.75 12H21.25ZM18.0667 18.9829C16.4422 20.3955 14.3218 21.25 12 21.25V22.75C14.6971 22.75 17.1639 21.7557 19.051 20.1148L18.0667 18.9829ZM12 21.25C9.67818 21.25 7.55781 20.3955 5.93331 18.9829L4.94902 20.1148C6.83607 21.7557 9.30286 22.75 12 22.75V21.25ZM5.93331 18.9829C3.98182 17.2859 2.75 14.7872 2.75 12H1.25C1.25 15.2395 2.68387 18.145 4.94902 20.1148L5.93331 18.9829Z" fill="#B083D3"/>
</g>
<circle cx="12" cy="10" r="3" fill="#B083D3" fill-opacity="0.6" stroke="#F8FAF9"/>
<path d="M18.5591 19.5488C17.5656 16.8918 15.0039 15 12.0002 15C8.99662 15 6.43484 16.8918 5.44141 19.5488C7.19718 21.0756 9.49076 22 12.0002 22C14.5097 22 16.8033 21.0756 18.5591 19.5488Z" fill="#B083D3" fill-opacity="0.6"/>
<path d="M18.5591 19.5488L18.8872 19.9261C19.0446 19.7893 19.1005 19.5691 19.0274 19.3737L18.5591 19.5488ZM5.44141 19.5488L4.97307 19.3737C4.90003 19.5691 4.95593 19.7893 5.11331 19.9261L5.44141 19.5488ZM12.0002 15.5C14.7885 15.5 17.168 17.2559 18.0907 19.7239L19.0274 19.3737C17.9633 16.5277 15.2192 14.5 12.0002 14.5V15.5ZM18.231 19.1715C16.5627 20.6222 14.3846 21.5 12.0002 21.5V22.5C14.6348 22.5 17.0439 21.529 18.8872 19.9261L18.231 19.1715ZM5.90974 19.7239C6.83251 17.2559 9.21195 15.5 12.0002 15.5V14.5C8.78128 14.5 6.03717 16.5277 4.97307 19.3737L5.90974 19.7239ZM12.0002 21.5C9.61587 21.5 7.43776 20.6222 5.7695 19.1715L5.11331 19.9261C6.9566 21.529 9.36565 22.5 12.0002 22.5V21.5Z" fill="#F8FAF9"/>
</g>
</g>
<defs>
<filter id="filter0_d_869_11255" x="-2.75" y="1.25" width="29.5" height="29.5" filterUnits="userSpaceOnUse" color-interpolation-filters="sRGB">
<feFlood flood-opacity="0" result="BackgroundImageFix"/>
<feColorMatrix in="SourceAlpha" type="matrix" values="0 0 0 0 0 0 0 0 0 0 0 0 0 0 0 0 0 0 127 0" result="hardAlpha"/>
<feOffset dy="4"/>
<feGaussianBlur stdDeviation="2"/>
<feComposite in2="hardAlpha" operator="out"/>
<feColorMatrix type="matrix" values="0 0 0 0 0.690196 0 0 0 0 0.513726 0 0 0 0 0.827451 0 0 0 0.3 0"/>
<feBlend mode="normal" in2="BackgroundImageFix" result="effect1_dropShadow_869_11255"/>
<feBlend mode="normal" in="SourceGraphic" in2="effect1_dropShadow_869_11255" result="shape"/>
</filter>
<clipPath id="clip0_869_11255">
<rect width="24" height="32" fill="white"/>
</clipPath>
</defs>
</svg>
