<svg width="60" height="70" viewBox="0 0 60 70" fill="none" xmlns="http://www.w3.org/2000/svg">
<path d="M30 0C16.1929 0 5 11.1928 5 24.9999C5 31.4397 8.54798 37.6688 12.5593 42.7213C16.6266 47.8442 21.4867 52.1493 24.7447 54.7923C27.8292 57.2946 32.1708 57.2946 35.2553 54.7923C38.5133 52.1493 43.3734 47.8442 47.4407 42.7213C51.452 37.6688 55 31.4397 55 24.9999C55 11.1928 43.8071 0 30 0ZM38.3333 24.9999C38.3333 29.6022 34.6024 33.3332 30 33.3332C25.3976 33.3332 21.6667 29.6022 21.6667 24.9999C21.6667 20.3975 25.3976 16.6666 30 16.6666C34.6024 16.6666 38.3333 20.3975 38.3333 24.9999ZM48.9387 46.1554C47.7277 47.5958 46.4733 48.9614 45.2277 50.2346C46.4131 50.5661 47.5175 50.9339 48.5291 51.3325C50.8455 52.245 52.5508 53.2695 53.635 54.2793C54.7157 55.2858 55 56.0944 55 56.6667C55 57.239 54.7157 58.0477 53.635 59.0541C52.5508 60.064 50.8455 61.0885 48.5291 62.001C43.9113 63.8201 37.3612 65 30 65C22.6388 65 16.0887 63.8201 11.4709 62.001C9.15449 61.0885 7.44925 60.064 6.36497 59.0541C5.28434 58.0477 5 57.239 5 56.6667C5 56.0944 5.28434 55.2858 6.36497 54.2793C7.44925 53.2695 9.15449 52.245 11.4709 51.3325C12.4825 50.9339 13.5869 50.5661 14.7723 50.2346C13.5267 48.9614 12.2723 47.5958 11.0613 46.1554C10.5736 46.3238 10.099 46.4989 9.63825 46.6804C6.97812 47.7284 4.65608 49.0382 2.9572 50.6205C1.25468 52.2062 0 54.2475 0 56.6667C0 59.086 1.25468 61.1273 2.9572 62.7129C4.65608 64.2952 6.97812 65.6051 9.63825 66.653C14.9735 68.7548 22.1734 70 30 70C37.8266 70 45.0265 68.7548 50.3617 66.653C53.0219 65.6051 55.3439 64.2952 57.0428 62.7129C58.7453 61.1273 60 59.086 60 56.6667C60 54.2475 58.7453 52.2062 57.0428 50.6205C55.3439 49.0382 53.0219 47.7284 50.3617 46.6804C49.901 46.4989 49.4264 46.3238 48.9387 46.1554Z" fill="#B083D3"/>
<circle cx="30.5" cy="24.5" r="14.5" fill="#F8FAF9"/>
<path d="M23.5 15.75C23.5 15.3358 23.1642 15 22.75 15C22.3358 15 22 15.3358 22 15.75C22 17.0207 22.9281 17.6672 23.5057 18.0696L23.5699 18.1144C24.2499 18.5904 24.5 18.8189 24.5 19.25C24.5 19.6642 24.8358 20 25.25 20C25.6642 20 26 19.6642 26 19.25C26 17.9793 25.0719 17.3328 24.4943 16.9304L24.4301 16.8856C23.7501 16.4096 23.5 16.1811 23.5 15.75ZM21 22.8214C21 21.8155 21.8155 21 22.8214 21H35.1786C36.1845 21 37 21.8155 37 22.8214V23.5H37.75C39.5449 23.5 41 24.9551 41 26.75C41 28.5449 39.5449 30 37.75 30H36.4185C35.2317 32.9318 32.3574 35 29 35C24.5817 35 21 31.4183 21 27V22.8214ZM35.5 22.8214C35.5 22.6439 35.3561 22.5 35.1786 22.5H22.8214C22.6439 22.5 22.5 22.6439 22.5 22.8214V27C22.5 30.5899 25.4101 33.5 29 33.5C32.5899 33.5 35.5 30.5899 35.5 27V22.8214ZM37.75 25H37V27C37 27.5127 36.9518 28.0141 36.8596 28.5H37.75C38.7165 28.5 39.5 27.7165 39.5 26.75C39.5 25.7835 38.7165 25 37.75 25ZM26.75 15C27.1642 15 27.5 15.3358 27.5 15.75C27.5 16.1811 27.7501 16.4096 28.4301 16.8856L28.4943 16.9304C29.0719 17.3328 30 17.9793 30 19.25C30 19.6642 29.6642 20 29.25 20C28.8358 20 28.5 19.6642 28.5 19.25C28.5 18.8189 28.2499 18.5904 27.5699 18.1144L27.5057 18.0696C26.9281 17.6672 26 17.0207 26 15.75C26 15.3358 26.3358 15 26.75 15ZM31.5 15.75C31.5 15.3358 31.1642 15 30.75 15C30.3358 15 30 15.3358 30 15.75C30 17.0207 30.9281 17.6672 31.5057 18.0696L31.5699 18.1144C32.2499 18.5904 32.5 18.8189 32.5 19.25C32.5 19.6642 32.8358 20 33.25 20C33.6642 20 34 19.6642 34 19.25C34 17.9793 33.0719 17.3328 32.4943 16.9304L32.4301 16.8856C31.7501 16.4096 31.5 16.1811 31.5 15.75Z" fill="#8F4ABF"/>
</svg>
