<svg width="60" height="70" viewBox="0 0 60 70" fill="none" xmlns="http://www.w3.org/2000/svg">
<path d="M30 0C16.1929 0 5 11.1928 5 24.9999C5 31.4397 8.54798 37.6688 12.5593 42.7213C16.6266 47.8442 21.4867 52.1493 24.7447 54.7923C27.8292 57.2946 32.1708 57.2946 35.2553 54.7923C38.5133 52.1493 43.3734 47.8442 47.4407 42.7213C51.452 37.6688 55 31.4397 55 24.9999C55 11.1928 43.8071 0 30 0ZM38.3333 24.9999C38.3333 29.6022 34.6024 33.3332 30 33.3332C25.3976 33.3332 21.6667 29.6022 21.6667 24.9999C21.6667 20.3975 25.3976 16.6666 30 16.6666C34.6024 16.6666 38.3333 20.3975 38.3333 24.9999ZM48.9387 46.1554C47.7277 47.5958 46.4733 48.9614 45.2277 50.2346C46.4131 50.5661 47.5175 50.9339 48.5291 51.3325C50.8455 52.245 52.5508 53.2695 53.635 54.2793C54.7157 55.2858 55 56.0944 55 56.6667C55 57.239 54.7157 58.0477 53.635 59.0541C52.5508 60.064 50.8455 61.0885 48.5291 62.001C43.9113 63.8201 37.3612 65 30 65C22.6388 65 16.0887 63.8201 11.4709 62.001C9.15449 61.0885 7.44925 60.064 6.36497 59.0541C5.28434 58.0477 5 57.239 5 56.6667C5 56.0944 5.28434 55.2858 6.36497 54.2793C7.44925 53.2695 9.15449 52.245 11.4709 51.3325C12.4825 50.9339 13.5869 50.5661 14.7723 50.2346C13.5267 48.9614 12.2723 47.5958 11.0613 46.1554C10.5736 46.3238 10.099 46.4989 9.63825 46.6804C6.97812 47.7284 4.65608 49.0382 2.9572 50.6205C1.25468 52.2062 0 54.2475 0 56.6667C0 59.086 1.25468 61.1273 2.9572 62.7129C4.65608 64.2952 6.97812 65.6051 9.63825 66.653C14.9735 68.7548 22.1734 70 30 70C37.8266 70 45.0265 68.7548 50.3617 66.653C53.0219 65.6051 55.3439 64.2952 57.0428 62.7129C58.7453 61.1273 60 59.086 60 56.6667C60 54.2475 58.7453 52.2062 57.0428 50.6205C55.3439 49.0382 53.0219 47.7284 50.3617 46.6804C49.901 46.4989 49.4264 46.3238 48.9387 46.1554Z" fill="#B083D3"/>
<circle cx="30.5" cy="24.5" r="14.5" fill="#F8FAF9"/>
<path d="M27.8084 18.5077C27.2794 18.2433 26.6986 18.2015 26.1699 18.3023L24.9873 18.5276C24.1255 18.6918 23.3838 19.2453 22.9834 20.0279C21.6164 22.7005 20.5828 24.8895 20.1841 26.7567C19.7729 28.6826 20.0243 30.3319 21.2633 31.8331C22.0849 32.8286 23.493 32.6274 24.2268 31.797C24.7856 31.1647 25.4218 30.4325 26.0441 29.7109C26.4539 29.2357 27.0488 28.9623 27.6738 28.9623H32.3295C32.9546 28.9623 33.5494 29.2357 33.9592 29.7109C34.5815 30.4325 35.2178 31.1647 35.7766 31.797C36.5104 32.6274 37.9184 32.8286 38.7401 31.8331C39.9791 30.3319 40.2305 28.6826 39.8193 26.7567C39.4206 24.8895 38.3869 22.7005 37.0199 20.0279C36.6196 19.2453 35.8779 18.6918 35.0161 18.5276L33.8335 18.3023C33.3047 18.2015 32.724 18.2433 32.195 18.5077C32.0514 18.5795 31.904 18.6567 31.7556 18.7371C31.4003 18.9296 31.0192 19.0338 30.6425 19.0338H29.3609C28.9841 19.0338 28.603 18.9296 28.2478 18.7371C28.0993 18.6567 27.952 18.5795 27.8084 18.5077ZM26.4373 19.7055C26.7126 19.653 26.9665 19.6839 27.1697 19.7854C27.2969 19.849 27.4301 19.9187 27.5672 19.993C28.1068 20.2854 28.7199 20.4623 29.3609 20.4623H30.6425C31.2835 20.4623 31.8966 20.2854 32.4362 19.993C32.5733 19.9187 32.7065 19.849 32.8337 19.7854C33.0369 19.6839 33.2908 19.653 33.5661 19.7055L34.7487 19.9308C35.1793 20.0129 35.5494 20.2898 35.7482 20.6784C37.1284 23.3769 38.0693 25.4017 38.4223 27.055C38.7628 28.6497 38.5431 29.8276 37.6383 30.9239C37.551 31.0297 37.4319 31.0792 37.2903 31.0728C37.1405 31.066 36.9731 30.9939 36.847 30.8511C36.2935 30.2248 35.6614 29.4974 35.041 28.778C34.3614 27.99 33.3725 27.5338 32.3295 27.5338H27.6738C26.6309 27.5338 25.642 27.99 24.9624 28.778C24.3419 29.4974 23.7098 30.2248 23.1564 30.8511C23.0302 30.9939 22.8629 31.066 22.7131 31.0728C22.5715 31.0792 22.4524 31.0297 22.365 30.9239C21.4602 29.8276 21.2406 28.6497 21.5811 27.055C21.9341 25.4017 22.875 23.3769 24.2552 20.6784C24.454 20.2898 24.8241 20.0129 25.2546 19.9308L26.4373 19.7055ZM30.0015 24.0004C30.5538 24.0004 31.0015 23.5527 31.0015 23.0004C31.0015 22.4481 30.5538 22.0004 30.0015 22.0004C29.4492 22.0004 29.0015 22.4481 29.0015 23.0004C29.0015 23.5527 29.4492 24.0004 30.0015 24.0004Z" fill="#8F4ABF"/>
</svg>
