<svg width="60" height="70" viewBox="0 0 60 70" fill="none" xmlns="http://www.w3.org/2000/svg">
<path d="M30 0C16.1929 0 5 11.1928 5 24.9999C5 31.4397 8.54798 37.6688 12.5593 42.7213C16.6266 47.8442 21.4867 52.1493 24.7447 54.7923C27.8292 57.2946 32.1708 57.2946 35.2553 54.7923C38.5133 52.1493 43.3734 47.8442 47.4407 42.7213C51.452 37.6688 55 31.4397 55 24.9999C55 11.1928 43.8071 0 30 0ZM38.3333 24.9999C38.3333 29.6022 34.6024 33.3332 30 33.3332C25.3976 33.3332 21.6667 29.6022 21.6667 24.9999C21.6667 20.3975 25.3976 16.6666 30 16.6666C34.6024 16.6666 38.3333 20.3975 38.3333 24.9999ZM48.9387 46.1554C47.7277 47.5958 46.4733 48.9614 45.2277 50.2346C46.4131 50.5661 47.5175 50.9339 48.5291 51.3325C50.8455 52.245 52.5508 53.2695 53.635 54.2793C54.7157 55.2858 55 56.0944 55 56.6667C55 57.239 54.7157 58.0477 53.635 59.0541C52.5508 60.064 50.8455 61.0885 48.5291 62.001C43.9113 63.8201 37.3612 65 30 65C22.6388 65 16.0887 63.8201 11.4709 62.001C9.15449 61.0885 7.44925 60.064 6.36497 59.0541C5.28434 58.0477 5 57.239 5 56.6667C5 56.0944 5.28434 55.2858 6.36497 54.2793C7.44925 53.2695 9.15449 52.245 11.4709 51.3325C12.4825 50.9339 13.5869 50.5661 14.7723 50.2346C13.5267 48.9614 12.2723 47.5958 11.0613 46.1554C10.5736 46.3238 10.099 46.4989 9.63825 46.6804C6.97812 47.7284 4.65608 49.0382 2.9572 50.6205C1.25468 52.2062 0 54.2475 0 56.6667C0 59.086 1.25468 61.1273 2.9572 62.7129C4.65608 64.2952 6.97812 65.6051 9.63825 66.653C14.9735 68.7548 22.1734 70 30 70C37.8266 70 45.0265 68.7548 50.3617 66.653C53.0219 65.6051 55.3439 64.2952 57.0428 62.7129C58.7453 61.1273 60 59.086 60 56.6667C60 54.2475 58.7453 52.2062 57.0428 50.6205C55.3439 49.0382 53.0219 47.7284 50.3617 46.6804C49.901 46.4989 49.4264 46.3238 48.9387 46.1554Z" fill="#B083D3"/>
<circle cx="30.5" cy="24.5" r="14.5" fill="#F8FAF9"/>
<path d="M37.7285 16.917L37.7795 17.0767L38.3307 18.9992C38.4354 19.3642 38.2507 19.7436 37.9125 19.8923L37.8165 19.9269L27.0896 23.002L38.2487 23.0029C38.6284 23.0029 38.9422 23.2851 38.9918 23.6512L38.9987 23.7529V32.2509C38.9987 33.7135 37.857 34.9093 36.4162 34.9959L36.2487 35.0009H23.7498C22.2873 35.0009 21.0914 33.8592 21.0048 32.4185L20.9998 32.2509L20.9996 23.859L20.4778 22.0378C20.0747 20.632 20.8426 19.1677 22.2037 18.6874L22.3633 18.6364L34.378 15.1912C35.7839 14.7881 37.2481 15.5559 37.7285 16.917ZM37.4978 24.502H22.4998V32.2509C22.4998 32.855 22.9283 33.359 23.4979 33.4755L23.622 33.4945L23.7498 33.5009H36.2487C36.8959 33.5009 37.4282 33.0091 37.4922 32.3787L37.4987 32.2509L37.4978 24.502ZM24.2725 19.6494L22.7768 20.0783C22.1546 20.2567 21.7785 20.8762 21.8907 21.4998L21.9197 21.6244L22.264 22.8252L22.5591 22.7404L24.2725 19.6494ZM29.0288 18.2855L26.3113 19.0648L24.598 22.1558L27.3154 21.3765L29.0288 18.2855ZM33.7861 16.9214L31.0686 17.7006L29.3552 20.7916L32.0718 20.0127L33.7861 16.9214ZM35.6333 16.6878L34.1125 19.4275L36.681 18.6912L36.3376 17.4901C36.2304 17.1164 35.9641 16.8315 35.6333 16.6878Z" fill="#8F4ABF"/>
</svg>
