<svg width="60" height="70" viewBox="0 0 60 70" fill="none" xmlns="http://www.w3.org/2000/svg">
<path d="M30 0C16.1929 0 5 11.1928 5 24.9999C5 31.4397 8.54798 37.6688 12.5593 42.7213C16.6266 47.8442 21.4867 52.1493 24.7447 54.7923C27.8292 57.2946 32.1708 57.2946 35.2553 54.7923C38.5133 52.1493 43.3734 47.8442 47.4407 42.7213C51.452 37.6688 55 31.4397 55 24.9999C55 11.1928 43.8071 0 30 0ZM38.3333 24.9999C38.3333 29.6022 34.6024 33.3332 30 33.3332C25.3976 33.3332 21.6667 29.6022 21.6667 24.9999C21.6667 20.3975 25.3976 16.6666 30 16.6666C34.6024 16.6666 38.3333 20.3975 38.3333 24.9999ZM48.9387 46.1554C47.7277 47.5958 46.4733 48.9614 45.2277 50.2346C46.4131 50.5661 47.5175 50.9339 48.5291 51.3325C50.8455 52.245 52.5508 53.2695 53.635 54.2793C54.7157 55.2858 55 56.0944 55 56.6667C55 57.239 54.7157 58.0477 53.635 59.0541C52.5508 60.064 50.8455 61.0885 48.5291 62.001C43.9113 63.8201 37.3612 65 30 65C22.6388 65 16.0887 63.8201 11.4709 62.001C9.15449 61.0885 7.44925 60.064 6.36497 59.0541C5.28434 58.0477 5 57.239 5 56.6667C5 56.0944 5.28434 55.2858 6.36497 54.2793C7.44925 53.2695 9.15449 52.245 11.4709 51.3325C12.4825 50.9339 13.5869 50.5661 14.7723 50.2346C13.5267 48.9614 12.2723 47.5958 11.0613 46.1554C10.5736 46.3238 10.099 46.4989 9.63825 46.6804C6.97812 47.7284 4.65608 49.0382 2.9572 50.6205C1.25468 52.2062 0 54.2475 0 56.6667C0 59.086 1.25468 61.1273 2.9572 62.7129C4.65608 64.2952 6.97812 65.6051 9.63825 66.653C14.9735 68.7548 22.1734 70 30 70C37.8266 70 45.0265 68.7548 50.3617 66.653C53.0219 65.6051 55.3439 64.2952 57.0428 62.7129C58.7453 61.1273 60 59.086 60 56.6667C60 54.2475 58.7453 52.2062 57.0428 50.6205C55.3439 49.0382 53.0219 47.7284 50.3617 46.6804C49.901 46.4989 49.4264 46.3238 48.9387 46.1554Z" fill="#B083D3"/>
<circle cx="30.5" cy="24.5" r="14.5" fill="#F8FAF9"/>
<path d="M20.5 17.25C20.5 16.8358 20.8358 16.5 21.25 16.5H21.8083C22.7587 16.5 23.3278 17.139 23.6532 17.733C23.8702 18.1289 24.0271 18.5882 24.1498 19.004C24.1831 19.0013 24.2167 19 24.2508 19H36.7481C37.5783 19 38.1778 19.7944 37.9502 20.5928L36.1224 27.0019C35.7856 28.1832 34.7062 28.9978 33.4779 28.9978H27.5298C26.2913 28.9978 25.2056 28.1699 24.8778 26.9756L24.1173 24.2045L22.8587 19.9558L22.8567 19.9483C22.701 19.3805 22.5549 18.85 22.3377 18.4537C22.1269 18.0688 21.9588 18 21.8083 18H21.25C20.8358 18 20.5 17.6642 20.5 17.25ZM25.5728 23.8403L26.3243 26.5786C26.4733 27.1215 26.9668 27.4978 27.5298 27.4978H33.4779C34.0362 27.4978 34.5268 27.1275 34.68 26.5906L36.4168 20.5H24.5855L25.5591 23.7868C25.5643 23.8046 25.5689 23.8224 25.5728 23.8403ZM29 32C29 33.1046 28.1046 34 27 34C25.8954 34 25 33.1046 25 32C25 30.8954 25.8954 30 27 30C28.1046 30 29 30.8954 29 32ZM27.5 32C27.5 31.7239 27.2761 31.5 27 31.5C26.7239 31.5 26.5 31.7239 26.5 32C26.5 32.2761 26.7239 32.5 27 32.5C27.2761 32.5 27.5 32.2761 27.5 32ZM36 32C36 33.1046 35.1046 34 34 34C32.8954 34 32 33.1046 32 32C32 30.8954 32.8954 30 34 30C35.1046 30 36 30.8954 36 32ZM34.5 32C34.5 31.7239 34.2761 31.5 34 31.5C33.7239 31.5 33.5 31.7239 33.5 32C33.5 32.2761 33.7239 32.5 34 32.5C34.2761 32.5 34.5 32.2761 34.5 32Z" fill="#8F4ABF"/>
</svg>
