<svg width="60" height="70" viewBox="0 0 60 70" fill="none" xmlns="http://www.w3.org/2000/svg">
<path d="M30 0C16.1929 0 5 11.1928 5 24.9999C5 31.4397 8.54798 37.6688 12.5593 42.7213C16.6266 47.8442 21.4867 52.1493 24.7447 54.7923C27.8292 57.2946 32.1708 57.2946 35.2553 54.7923C38.5133 52.1493 43.3734 47.8442 47.4407 42.7213C51.452 37.6688 55 31.4397 55 24.9999C55 11.1928 43.8071 0 30 0ZM38.3333 24.9999C38.3333 29.6022 34.6024 33.3332 30 33.3332C25.3976 33.3332 21.6667 29.6022 21.6667 24.9999C21.6667 20.3975 25.3976 16.6666 30 16.6666C34.6024 16.6666 38.3333 20.3975 38.3333 24.9999ZM48.9387 46.1554C47.7277 47.5958 46.4733 48.9614 45.2277 50.2346C46.4131 50.5661 47.5175 50.9339 48.5291 51.3325C50.8455 52.245 52.5508 53.2695 53.635 54.2793C54.7157 55.2858 55 56.0944 55 56.6667C55 57.239 54.7157 58.0477 53.635 59.0541C52.5508 60.064 50.8455 61.0885 48.5291 62.001C43.9113 63.8201 37.3612 65 30 65C22.6388 65 16.0887 63.8201 11.4709 62.001C9.15449 61.0885 7.44925 60.064 6.36497 59.0541C5.28434 58.0477 5 57.239 5 56.6667C5 56.0944 5.28434 55.2858 6.36497 54.2793C7.44925 53.2695 9.15449 52.245 11.4709 51.3325C12.4825 50.9339 13.5869 50.5661 14.7723 50.2346C13.5267 48.9614 12.2723 47.5958 11.0613 46.1554C10.5736 46.3238 10.099 46.4989 9.63825 46.6804C6.97812 47.7284 4.65608 49.0382 2.9572 50.6205C1.25468 52.2062 0 54.2475 0 56.6667C0 59.086 1.25468 61.1273 2.9572 62.7129C4.65608 64.2952 6.97812 65.6051 9.63825 66.653C14.9735 68.7548 22.1734 70 30 70C37.8266 70 45.0265 68.7548 50.3617 66.653C53.0219 65.6051 55.3439 64.2952 57.0428 62.7129C58.7453 61.1273 60 59.086 60 56.6667C60 54.2475 58.7453 52.2062 57.0428 50.6205C55.3439 49.0382 53.0219 47.7284 50.3617 46.6804C49.901 46.4989 49.4264 46.3238 48.9387 46.1554Z" fill="#B083D3"/>
<circle cx="30.5" cy="24.5" r="14.5" fill="#F8FAF9"/>
<path d="M30.9411 34.9559C33.1782 34.7457 35.3581 33.7841 37.0711 32.0711C40.9763 28.1658 40.9763 21.8342 37.0711 17.9289C33.1658 14.0237 26.8342 14.0237 22.9289 17.9289C19.0237 21.8342 19.0237 28.1658 22.9289 32.0711C25.0383 34.1804 27.8556 35.1505 30.6161 34.9811C30.7222 34.9964 30.8329 34.989 30.9411 34.9559ZM21.5771 23.854C21.7864 22.3073 22.4215 20.8072 23.4823 19.5431L28.9392 25.0001L27.8508 26.0885C26.7993 25.2372 25.6268 24.7804 24.5097 24.4804C23.8594 24.3058 23.2139 24.1809 22.6234 24.0667L22.6067 24.0635C22.2397 23.9925 21.8974 23.926 21.5771 23.854ZM21.5082 25.374C21.7741 25.4302 22.0429 25.4822 22.3089 25.5337L22.3218 25.5361C22.9247 25.6528 23.5242 25.7689 24.1206 25.9291C25.0742 26.1852 25.9825 26.5448 26.7827 27.1566L23.4823 30.457C22.2457 28.9834 21.5876 27.189 21.5082 25.374ZM27.8466 28.214C28.5215 29.0762 28.8864 30.0204 29.144 30.9874C29.2689 31.4561 29.3651 31.9151 29.4623 32.379C29.4898 32.5101 29.5174 32.6416 29.5457 32.7739C29.5969 33.0134 29.6507 33.2552 29.7108 33.4951C27.867 33.4327 26.0395 32.7736 24.543 31.5176L27.8466 28.214ZM31.2397 33.4096C31.1584 33.1196 31.0861 32.8041 31.0124 32.4599C30.987 32.3411 30.9614 32.2186 30.9351 32.0933C30.8368 31.624 30.7298 31.113 30.5935 30.6012C30.2929 29.4731 29.8322 28.2642 28.9136 27.147L29.9999 26.0607L35.4569 31.5177C34.2184 32.5571 32.7532 33.1877 31.2397 33.4096ZM31.0606 25.0001L32.2716 23.789C33.3855 24.7314 34.5529 25.2483 35.6371 25.6151C36.0845 25.7665 36.5336 25.8971 36.9482 26.0177C37.1068 26.0638 37.2605 26.1085 37.4073 26.1523C37.7589 26.2575 38.0793 26.3601 38.3721 26.473C38.1217 27.9036 37.5035 29.2823 36.5176 30.4571L31.0606 25.0001ZM37.8368 24.7152C37.6683 24.6648 37.5011 24.6162 37.3352 24.5679C36.9319 24.4507 36.5325 24.3346 36.1179 24.1943C35.1737 23.8748 34.2296 23.4537 33.3367 22.7239L36.5176 19.543C37.8221 21.0974 38.4828 23.0087 38.4997 24.9247C38.2794 24.8499 38.0574 24.7811 37.8368 24.7152ZM35.457 18.4823L32.276 21.6633C31.5459 20.7702 31.1247 19.826 30.8052 18.8816C30.6649 18.4669 30.5487 18.0675 30.4315 17.6642L30.4311 17.6629C30.3829 17.4972 30.3346 17.3309 30.2843 17.1626C30.2184 16.9422 30.1497 16.7204 30.075 16.5003C31.991 16.5171 33.9025 17.1778 35.457 18.4823ZM29.3843 19.3623C29.7512 20.4467 30.2682 21.6143 31.2109 22.7284L29.9999 23.9394L24.5429 18.4824C25.7176 17.4965 27.0962 16.8784 28.5266 16.6279C28.6395 16.9206 28.7421 17.2408 28.8471 17.5922C28.891 17.7391 28.9358 17.893 28.9819 18.0518C29.1025 18.4665 29.2329 18.9149 29.3843 19.3623Z" fill="#8F4ABF"/>
</svg>
