<svg width="24" height="32" viewBox="0 0 24 32" fill="none" xmlns="http://www.w3.org/2000/svg">
<g clip-path="url(#clip0_875_11312)">
<g filter="url(#filter0_d_875_11312)">
<g opacity="0.8">
<path d="M4 19.8924V8C4 7.18586 4.89543 7 6 7H18C19.1046 7 20 7.18586 20 8L20 19.8924C20 20.8132 18.562 21.3305 17.5771 20.7639L13.2305 17.8471C12.5073 17.4311 11.4927 17.4311 10.7695 17.8471L6.42289 20.7639C5.43797 21.3305 4 20.8132 4 19.8924Z" fill="#B083D3"/>
<path d="M6.42289 20.7639L6.6722 21.1973C6.68217 21.1916 6.69194 21.1855 6.70149 21.1791L6.42289 20.7639ZM10.7695 17.8471L10.5202 17.4137C10.5102 17.4195 10.5004 17.4256 10.4909 17.432L10.7695 17.8471ZM13.2305 17.8471L13.5091 17.432C13.4996 17.4256 13.4898 17.4195 13.4798 17.4137L13.2305 17.8471ZM17.5771 20.7639L17.2985 21.1791C17.3081 21.1855 17.3178 21.1916 17.3278 21.1973L17.5771 20.7639ZM20 19.8924H20.5H20ZM20 8H19.5H20ZM3.5 8V19.8924H4.5V8H3.5ZM6.70149 21.1791L11.0481 18.2623L10.4909 17.432L6.14428 20.3487L6.70149 21.1791ZM12.9519 18.2623L17.2985 21.1791L17.8557 20.3487L13.5091 17.432L12.9519 18.2623ZM20.5 19.8924V8L19.5 8L19.5 19.8924H20.5ZM18 6.5H6V7.5H18V6.5ZM20.5 8C20.5 7.69839 20.4147 7.42421 20.2395 7.19593C20.0693 6.97412 19.84 6.82876 19.6037 6.732C19.1459 6.54449 18.5622 6.5 18 6.5V7.5C18.5424 7.5 18.9587 7.54844 19.2247 7.65739C19.3504 7.70886 19.4139 7.76263 19.4461 7.80464C19.4734 7.84018 19.5 7.89454 19.5 8H20.5ZM17.3278 21.1973C17.9642 21.5634 18.7255 21.5728 19.3271 21.3564C19.9144 21.1452 20.5 20.6485 20.5 19.8924H19.5C19.5 20.0571 19.3666 20.2795 18.9887 20.4154C18.625 20.5462 18.1749 20.531 17.8264 20.3305L17.3278 21.1973ZM11.0188 18.2806C11.5877 17.9533 12.4123 17.9533 12.9812 18.2806L13.4798 17.4137C12.6022 16.9089 11.3978 16.9089 10.5202 17.4137L11.0188 18.2806ZM3.5 19.8924C3.5 20.6485 4.0856 21.1452 4.67285 21.3564C5.27445 21.5728 6.03575 21.5634 6.6722 21.1973L6.17357 20.3305C5.8251 20.531 5.37496 20.5462 5.01134 20.4154C4.63339 20.2795 4.5 20.0571 4.5 19.8924H3.5ZM4.5 8C4.5 7.89454 4.5266 7.84018 4.55387 7.80464C4.5861 7.76263 4.64962 7.70886 4.77529 7.65739C5.04131 7.54844 5.45761 7.5 6 7.5V6.5C5.43782 6.5 4.85412 6.54449 4.39628 6.732C4.16003 6.82876 3.93065 6.97412 3.76047 7.19593C3.58533 7.42421 3.5 7.69839 3.5 8H4.5Z" fill="#B083D3"/>
</g>
<path d="M6 2H18C19.1046 2 20 2.89543 20 4V7H4V4C4 2.89543 4.89543 2 6 2Z" fill="#B083D3" fill-opacity="0.8"/>
<path d="M4 7H3.5C3.5 7.27614 3.72386 7.5 4 7.5V7ZM20 7V7.5C20.2761 7.5 20.5 7.27614 20.5 7H20ZM18 1.5H6V2.5H18V1.5ZM20.5 4C20.5 2.61929 19.3807 1.5 18 1.5V2.5C18.8284 2.5 19.5 3.17157 19.5 4H20.5ZM4.5 4C4.5 3.17157 5.17157 2.5 6 2.5V1.5C4.61929 1.5 3.5 2.61929 3.5 4H4.5ZM4 7.5H20V6.5H4V7.5ZM20.5 7V4H19.5V7H20.5ZM4.5 7V4H3.5V7H4.5Z" fill="#F8FAF9"/>
</g>
</g>
<defs>
<filter id="filter0_d_875_11312" x="-0.5" y="1.5" width="25" height="28" filterUnits="userSpaceOnUse" color-interpolation-filters="sRGB">
<feFlood flood-opacity="0" result="BackgroundImageFix"/>
<feColorMatrix in="SourceAlpha" type="matrix" values="0 0 0 0 0 0 0 0 0 0 0 0 0 0 0 0 0 0 127 0" result="hardAlpha"/>
<feOffset dy="4"/>
<feGaussianBlur stdDeviation="2"/>
<feComposite in2="hardAlpha" operator="out"/>
<feColorMatrix type="matrix" values="0 0 0 0 0.690196 0 0 0 0 0.513726 0 0 0 0 0.827451 0 0 0 0.3 0"/>
<feBlend mode="normal" in2="BackgroundImageFix" result="effect1_dropShadow_875_11312"/>
<feBlend mode="normal" in="SourceGraphic" in2="effect1_dropShadow_875_11312" result="shape"/>
</filter>
<clipPath id="clip0_875_11312">
<rect width="24" height="32" fill="white"/>
</clipPath>
</defs>
</svg>
