<svg width="14" height="16" viewBox="0 0 14 16" fill="none" xmlns="http://www.w3.org/2000/svg">
<path d="M7 0C3.5 0 0 0.421053 0 3.36842V11.3684C0 12.1684 0.3325 12.8926 0.875 13.4232V14.7368C0.875 15.4358 1.46125 16 2.1875 16C2.91375 16 3.5 15.4358 3.5 14.7368V14.3158H10.5V14.7368C10.5 15.4274 11.0863 16 11.8125 16C12.53 16 13.125 15.4358 13.125 14.7368V13.4232C13.6675 12.8926 14 12.1684 14 11.3684V3.36842C14 0.421053 10.8675 0 7 0ZM3.9375 11.7895C3.21125 11.7895 2.625 11.2253 2.625 10.5263C2.625 9.82737 3.21125 9.26316 3.9375 9.26316C4.66375 9.26316 5.25 9.82737 5.25 10.5263C5.25 11.2253 4.66375 11.7895 3.9375 11.7895ZM10.0625 11.7895C9.33625 11.7895 8.75 11.2253 8.75 10.5263C8.75 9.82737 9.33625 9.26316 10.0625 9.26316C10.7887 9.26316 11.375 9.82737 11.375 10.5263C11.375 11.2253 10.7887 11.7895 10.0625 11.7895ZM12.25 6.73684H1.75V4.21053H12.25V6.73684Z" fill="#C675FF"/>
</svg>
