<svg width="24" height="32" viewBox="0 0 24 32" fill="none" xmlns="http://www.w3.org/2000/svg">
<g clip-path="url(#clip0_869_11205)">
<g filter="url(#filter0_d_869_11205)">
<path opacity="0.8" d="M15.8769 21H12.2111C11.4214 21 10.6494 20.7662 9.9923 20.3282L8.4453 19.2969C8.1671 19.1114 8 18.7992 8 18.4648V10.2656C8 10.0915 8.04541 9.92052 8.13176 9.76943L11.7121 3.50386C11.8901 3.19229 12.2215 3 12.5803 3H13.3287C15.3254 3 16.5164 5.22536 15.4088 6.88675L14 9H19.4384C20.7396 9 21.6943 10.2228 21.3787 11.4851L19.7575 17.9701C19.3123 19.7508 17.7124 21 15.8769 21Z" fill="#B083D3"/>
<path d="M6 8H4C2.89543 8 2 8.89543 2 10V19C2 20.1046 2.89543 21 4 21H6C7.10457 21 8 20.1046 8 19V10C8 8.89543 7.10457 8 6 8Z" fill="#B083D3" fill-opacity="0.8"/>
<path d="M6 7.5H4V8.5H6V7.5ZM4 7.5C2.61929 7.5 1.5 8.61929 1.5 10H2.5C2.5 9.17157 3.17157 8.5 4 8.5V7.5ZM1.5 10V19H2.5V10H1.5ZM1.5 19C1.5 20.3807 2.61929 21.5 4 21.5V20.5C3.17157 20.5 2.5 19.8284 2.5 19H1.5ZM4 21.5H6V20.5H4V21.5ZM6 21.5C7.38071 21.5 8.5 20.3807 8.5 19H7.5C7.5 19.8284 6.82843 20.5 6 20.5V21.5ZM8.5 19V10H7.5V19H8.5ZM8.5 10C8.5 8.61929 7.38071 7.5 6 7.5V8.5C6.82843 8.5 7.5 9.17157 7.5 10H8.5Z" fill="#F8FAF9"/>
</g>
</g>
<defs>
<filter id="filter0_d_869_11205" x="-2.5" y="3" width="27.9395" height="26.5" filterUnits="userSpaceOnUse" color-interpolation-filters="sRGB">
<feFlood flood-opacity="0" result="BackgroundImageFix"/>
<feColorMatrix in="SourceAlpha" type="matrix" values="0 0 0 0 0 0 0 0 0 0 0 0 0 0 0 0 0 0 127 0" result="hardAlpha"/>
<feOffset dy="4"/>
<feGaussianBlur stdDeviation="2"/>
<feComposite in2="hardAlpha" operator="out"/>
<feColorMatrix type="matrix" values="0 0 0 0 0.690196 0 0 0 0 0.513726 0 0 0 0 0.827451 0 0 0 0.3 0"/>
<feBlend mode="normal" in2="BackgroundImageFix" result="effect1_dropShadow_869_11205"/>
<feBlend mode="normal" in="SourceGraphic" in2="effect1_dropShadow_869_11205" result="shape"/>
</filter>
<clipPath id="clip0_869_11205">
<rect width="24" height="32" fill="white"/>
</clipPath>
</defs>
</svg>
