<svg width="14" height="16" viewBox="0 0 14 16" fill="none" xmlns="http://www.w3.org/2000/svg">
<path d="M7 0C3.1325 0 0 0.421053 0 3.36842V11.3684C0 12.9937 1.37375 14.3158 3.0625 14.3158L1.75 15.5789V16H12.25V15.5789L10.9375 14.3158C12.6262 14.3158 14 12.9937 14 11.3684V3.36842C14 0.421053 10.8675 0 7 0ZM3.0625 12.6316C2.33625 12.6316 1.75 12.0674 1.75 11.3684C1.75 10.6695 2.33625 10.1053 3.0625 10.1053C3.78875 10.1053 4.375 10.6695 4.375 11.3684C4.375 12.0674 3.78875 12.6316 3.0625 12.6316ZM6.125 7.57895H1.75V3.36842H6.125V7.57895ZM10.9375 12.6316C10.2113 12.6316 9.625 12.0674 9.625 11.3684C9.625 10.6695 10.2113 10.1053 10.9375 10.1053C11.6637 10.1053 12.25 10.6695 12.25 11.3684C12.25 12.0674 11.6637 12.6316 10.9375 12.6316ZM12.25 7.57895H7.875V3.36842H12.25V7.57895Z" fill="#C675FF"/>
</svg>
