<svg width="14" height="16" viewBox="0 0 14 16" fill="none" xmlns="http://www.w3.org/2000/svg">
<path d="M9.16338 2.97674C10.1307 2.97674 10.9222 2.30698 10.9222 1.48837C10.9222 0.669767 10.1307 0 9.16338 0C8.19606 0 7.40461 0.669767 7.40461 1.48837C7.40461 2.30698 8.19606 2.97674 9.16338 2.97674ZM6.37573 11.907L6.87698 10.0465L8.72369 11.5349V15.2558C8.72369 15.6651 9.11941 16 9.60307 16C10.0867 16 10.4825 15.6651 10.4825 15.2558V11.0586C10.4825 10.6493 10.289 10.2623 9.93724 9.97953L8.63575 8.93023L9.16338 6.69767C10.1043 7.62047 11.4674 8.28279 12.9975 8.49116C13.5251 8.55814 14 8.20093 14 7.74698C14 7.38233 13.6834 7.07721 13.2525 7.01767C11.9159 6.83163 10.8078 6.16186 10.2186 5.28372L9.33926 4.09302C8.9875 3.64651 8.45987 3.34884 7.8443 3.34884C7.58049 3.34884 7.40461 3.42326 7.1408 3.42326L3.64084 4.67349C2.9901 4.91163 2.56799 5.44744 2.56799 6.05023V7.81395C2.56799 8.22326 2.96372 8.55814 3.44738 8.55814C3.93104 8.55814 4.32676 8.22326 4.32676 7.81395V6.02791L5.90966 5.50698L4.50264 11.5349L1.05545 10.9395C0.580584 10.8577 0.11451 11.1181 0.0177776 11.52V11.5498C-0.0789548 11.9516 0.22883 12.346 0.703698 12.4279L4.31797 13.0381C5.25012 13.1944 6.16468 12.6958 6.37573 11.907Z" fill="#C675FF"/>
</svg>
