<svg width="18" height="19" viewBox="0 0 18 19" fill="none" xmlns="http://www.w3.org/2000/svg">
<path d="M9 4.8457C9.41421 4.8457 9.75 5.18149 9.75 5.5957V9.0957H13.25C13.6642 9.0957 14 9.43149 14 9.8457C14 10.2599 13.6642 10.5957 13.25 10.5957H9.75V14.0957C9.75 14.5099 9.41421 14.8457 9 14.8457C8.58579 14.8457 8.25 14.5099 8.25 14.0957V10.5957H4.75C4.33579 10.5957 4 10.2599 4 9.8457C4 9.43149 4.33579 9.0957 4.75 9.0957H8.25V5.5957C8.25 5.18149 8.58579 4.8457 9 4.8457ZM0 4.0957C0 2.30078 1.45507 0.845703 3.25 0.845703H14.75C16.5449 0.845703 18 2.30078 18 4.0957V15.5957C18 17.3906 16.5449 18.8457 14.75 18.8457H3.25C1.45507 18.8457 0 17.3906 0 15.5957V4.0957ZM3.25 2.3457C2.2835 2.3457 1.5 3.1292 1.5 4.0957V15.5957C1.5 16.5622 2.2835 17.3457 3.25 17.3457H14.75C15.7165 17.3457 16.5 16.5622 16.5 15.5957V4.0957C16.5 3.1292 15.7165 2.3457 14.75 2.3457H3.25Z" fill="#6A6D6E"/>
</svg>
