<svg width="17" height="21" viewBox="0 0 17 21" fill="none" xmlns="http://www.w3.org/2000/svg">
<path d="M3 4.8457C3 4.29342 3.44772 3.8457 4 3.8457H12C12.5523 3.8457 13 4.29342 13 4.8457V6.8457C13 7.39799 12.5523 7.8457 12 7.8457H4C3.44772 7.8457 3 7.39799 3 6.8457V4.8457ZM4.5 6.3457H11.5V5.3457H4.5V6.3457ZM0 3.3457C0 1.96499 1.11929 0.845703 2.5 0.845703H14C15.3807 0.845703 16.5 1.96499 16.5 3.3457V17.5957C16.5 18.0099 16.1642 18.3457 15.75 18.3457H1.5C1.5 18.898 1.94772 19.3457 2.5 19.3457H15.75C16.1642 19.3457 16.5 19.6815 16.5 20.0957C16.5 20.5099 16.1642 20.8457 15.75 20.8457H2.5C1.11929 20.8457 0 19.7264 0 18.3457V3.3457ZM1.5 16.8457H15V3.3457C15 2.79342 14.5523 2.3457 14 2.3457H2.5C1.94772 2.3457 1.5 2.79342 1.5 3.3457V16.8457Z" fill="#6A6D6E"/>
</svg>
