<svg width="20" height="21" viewBox="0 0 20 21" fill="none" xmlns="http://www.w3.org/2000/svg">
<path d="M2.5 1.5957C2.5 1.18149 2.16421 0.845703 1.75 0.845703C1.33579 0.845703 1 1.18149 1 1.5957C1 2.86636 1.92806 3.51291 2.50571 3.91534L2.5699 3.96013C3.24985 4.43609 3.5 4.66459 3.5 5.0957C3.5 5.50992 3.83579 5.8457 4.25 5.8457C4.66421 5.8457 5 5.50992 5 5.0957C5 3.82505 4.07194 3.1785 3.49429 2.77607L3.4301 2.73128C2.75015 2.25531 2.5 2.02682 2.5 1.5957ZM0 8.66713C0 7.66118 0.815481 6.8457 1.82143 6.8457H14.1786C15.1845 6.8457 16 7.66118 16 8.66713V9.3457H16.75C18.5449 9.3457 20 10.8008 20 12.5957C20 14.3906 18.5449 15.8457 16.75 15.8457H15.4185C14.2317 18.7775 11.3574 20.8457 8 20.8457C3.58172 20.8457 0 17.264 0 12.8457V8.66713ZM14.5 8.66713C14.5 8.48961 14.3561 8.3457 14.1786 8.3457H1.82143C1.64391 8.3457 1.5 8.48961 1.5 8.66713V12.8457C1.5 16.4356 4.41015 19.3457 8 19.3457C11.5899 19.3457 14.5 16.4356 14.5 12.8457V8.66713ZM16.75 10.8457H16V12.8457C16 13.3584 15.9518 13.8598 15.8596 14.3457H16.75C17.7165 14.3457 18.5 13.5622 18.5 12.5957C18.5 11.6292 17.7165 10.8457 16.75 10.8457ZM5.75 0.845703C6.16421 0.845703 6.5 1.18149 6.5 1.5957C6.5 2.02682 6.75015 2.25531 7.4301 2.73128L7.49429 2.77607C8.07194 3.1785 9 3.82505 9 5.0957C9 5.50992 8.66421 5.8457 8.25 5.8457C7.83579 5.8457 7.5 5.50992 7.5 5.0957C7.5 4.66459 7.24985 4.43609 6.5699 3.96013L6.50571 3.91534C5.92806 3.51291 5 2.86636 5 1.5957C5 1.18149 5.33579 0.845703 5.75 0.845703ZM10.5 1.5957C10.5 1.18149 10.1642 0.845703 9.75 0.845703C9.33579 0.845703 9 1.18149 9 1.5957C9 2.86636 9.92806 3.51291 10.5057 3.91534L10.5699 3.96013C11.2499 4.43609 11.5 4.66459 11.5 5.0957C11.5 5.50992 11.8358 5.8457 12.25 5.8457C12.6642 5.8457 13 5.50992 13 5.0957C13 3.82505 12.0719 3.1785 11.4943 2.77607L11.4301 2.73128C10.7501 2.25531 10.5 2.02682 10.5 1.5957Z" fill="#6A6D6E"/>
</svg>
