<svg width="18" height="21" viewBox="0 0 18 21" fill="none" xmlns="http://www.w3.org/2000/svg">
<path d="M4.5 8.8457C4.5 8.43149 4.16421 8.0957 3.75 8.0957C3.33579 8.0957 3 8.43149 3 8.8457V15.8457C3 16.2599 3.33579 16.5957 3.75 16.5957C4.16421 16.5957 4.5 16.2599 4.5 15.8457V8.8457ZM7.5 8.8457C7.5 8.43149 7.16421 8.0957 6.75 8.0957C6.33579 8.0957 6 8.43149 6 8.8457V15.8457C6 16.2599 6.33579 16.5957 6.75 16.5957C7.16421 16.5957 7.5 16.2599 7.5 15.8457V8.8457ZM10.5 8.8457C10.5 8.43149 10.1642 8.0957 9.75 8.0957C9.33579 8.0957 9 8.43149 9 8.8457V15.8457C9 16.2599 9.33579 16.5957 9.75 16.5957C10.1642 16.5957 10.5 16.2599 10.5 15.8457V8.8457ZM0 4.0957C0 2.30078 1.45507 0.845703 3.25 0.845703H10.25C12.0449 0.845703 13.5 2.30078 13.5 4.0957V4.8457H14.75C16.5449 4.8457 18 6.30078 18 8.0957V13.5957C18 15.3906 16.5449 16.8457 14.75 16.8457H13.5V18.5957C13.5 19.8383 12.4926 20.8457 11.25 20.8457H2.25C1.00736 20.8457 0 19.8383 0 18.5957V4.0957ZM12 6.3457H1.5V18.5957C1.5 19.0099 1.83579 19.3457 2.25 19.3457H11.25C11.6642 19.3457 12 19.0099 12 18.5957V6.3457ZM13.5 15.3457H14.75C15.7165 15.3457 16.5 14.5622 16.5 13.5957V8.0957C16.5 7.1292 15.7165 6.3457 14.75 6.3457H13.5V15.3457ZM12 4.0957C12 3.1292 11.2165 2.3457 10.25 2.3457H3.25C2.2835 2.3457 1.5 3.1292 1.5 4.0957V4.8457H12V4.0957Z" fill="#6A6D6E"/>
</svg>
