<svg width="20" height="20" viewBox="0 0 20 20" fill="none" xmlns="http://www.w3.org/2000/svg">
<path d="M1.8391 4.70334C4.7801 0.787732 10.8687 -0.351653 15.203 2.34322C19.4828 5.00423 21.0569 10.1203 19.3039 14.9206C17.6487 19.4532 13.2876 21.2491 10.1443 18.969C8.9668 18.1149 8.51035 17.0442 8.28971 15.3052L8.18433 14.3172L8.13892 13.9198C8.01629 12.9857 7.82786 12.5673 7.43459 12.3481C6.899 12.0495 6.54237 12.0426 5.83911 12.3151L5.488 12.4607L5.30926 12.5387C4.29549 12.9789 3.6211 13.1336 2.7681 12.9549L2.56785 12.9077L2.40432 12.8611C-0.384648 11.9969 -0.797737 8.21398 1.8391 4.70334ZM2.82332 11.4198L2.94622 11.4562L3.08017 11.4871C3.51925 11.574 3.8945 11.5015 4.51719 11.2452L5.11936 10.988C6.32151 10.4951 7.1046 10.4469 8.16489 11.0379C9.08247 11.5493 9.44011 12.3354 9.62253 13.6975L9.67572 14.1566L9.72993 14.6884L9.77707 15.1108C9.94914 16.472 10.262 17.2013 11.025 17.7548C13.3003 19.4052 16.5595 18.0632 17.8949 14.4061C19.4112 10.2539 18.069 5.89152 14.411 3.61707C10.7368 1.3326 5.51254 2.31023 3.03846 5.60418C0.963676 8.36652 1.21815 10.8837 2.82332 11.4198ZM14.0478 9.42542C13.8691 8.75858 14.2649 8.07316 14.9317 7.89449C15.5985 7.71581 16.2839 8.11154 16.4626 8.77837C16.6413 9.4452 16.2456 10.1306 15.5787 10.3093C14.9119 10.488 14.2265 10.0922 14.0478 9.42542ZM14.5424 12.9141C14.3637 12.2472 14.7594 11.5618 15.4263 11.3832C16.0931 11.2045 16.7785 11.6002 16.9572 12.267C17.1359 12.9339 16.7402 13.6193 16.0733 13.798C15.4065 13.9766 14.7211 13.5809 14.5424 12.9141ZM12.0693 6.42273C11.8906 5.7559 12.2863 5.07048 12.9532 4.8918C13.62 4.71312 14.3054 5.10885 14.4841 5.77569C14.6628 6.44252 14.2671 7.12794 13.6002 7.30662C12.9334 7.48529 12.248 7.08957 12.0693 6.42273ZM12.0408 15.4211C11.8621 14.7543 12.2579 14.0689 12.9247 13.8902C13.5915 13.7115 14.277 14.1072 14.4556 14.7741C14.6343 15.4409 14.2386 16.1263 13.5717 16.305C12.9049 16.4837 12.2195 16.088 12.0408 15.4211ZM8.54389 5.45114C8.36521 4.78431 8.76094 4.09889 9.42777 3.92021C10.0946 3.74153 10.78 4.13726 10.9587 4.80409C11.1374 5.47092 10.7417 6.15635 10.0748 6.33502C9.40799 6.5137 8.72257 6.11797 8.54389 5.45114Z" fill="#6A6D6E"/>
</svg>
