<svg width="14" height="18" viewBox="0 0 14 18" fill="none" xmlns="http://www.w3.org/2000/svg">
<path d="M13.25 0.0957031C13.6297 0.0957031 13.9435 0.377857 13.9932 0.743932L14 0.845703V16.8457C14 17.2599 13.6642 17.5957 13.25 17.5957C12.8703 17.5957 12.5565 17.3135 12.5068 16.9475L12.5 16.8457V11.8457H10.25C9.8703 11.8457 9.55651 11.5635 9.50685 11.1975L9.5 11.0957V3.8457C9.5 1.77464 11.1789 0.0957031 13.25 0.0957031ZM7.25 0.0957031C7.6297 0.0957031 7.94349 0.377857 7.99315 0.743932L8 0.845703V4.8457C8 6.79828 6.60095 8.4241 4.7506 8.77539L4.75 16.8457C4.75 17.2599 4.41421 17.5957 4 17.5957C3.6203 17.5957 3.30651 17.3135 3.25685 16.9475L3.25 16.8457L3.25039 8.77558C1.46566 8.43721 0.100544 6.91315 0.00531244 5.05365L0 4.8457V0.845703C0 0.43149 0.335786 0.0957031 0.75 0.0957031C1.1297 0.0957031 1.44349 0.377857 1.49315 0.743932L1.5 0.845703V4.8457C1.5 5.96527 2.23593 6.91295 3.25042 7.23138L3.25 0.845703C3.25 0.43149 3.58579 0.0957031 4 0.0957031C4.3797 0.0957031 4.69349 0.377857 4.74315 0.743932L4.75 0.845703L4.75057 7.23107C5.70822 6.93004 6.41742 6.06823 6.49327 5.03057L6.5 4.8457V0.845703C6.5 0.43149 6.83579 0.0957031 7.25 0.0957031ZM12.5 10.3457V1.72373C11.6775 2.01444 11.0745 2.7698 11.0064 3.67442L11 3.8457V10.3457H12.5V1.72373V10.3457Z" fill="#6A6D6E"/>
</svg>
