<svg width="19" height="21" viewBox="0 0 19 21" fill="none" xmlns="http://www.w3.org/2000/svg">
<path d="M17.7287 2.76274L17.7797 2.92239L18.331 4.84492C18.4356 5.2099 18.2509 5.58932 17.9127 5.73796L17.8168 5.77259L7.08985 8.84769L18.2489 8.84862C18.6286 8.84862 18.9424 9.13078 18.9921 9.49685L18.9989 9.59862V18.0966C18.9989 19.5592 17.8572 20.755 16.4164 20.8416L16.2489 20.8466H3.75006C2.28752 20.8466 1.09165 19.7049 1.00507 18.2642L1.00006 18.0966L0.999849 9.70469L0.478089 7.88355C0.0749609 6.47768 0.84281 5.01343 2.20391 4.53308L2.36356 4.48208L14.3782 1.03693C15.7841 0.633799 17.2483 1.40165 17.7287 2.76274ZM17.4981 10.3477H2.50006V18.0966C2.50006 18.7007 2.92853 19.2047 3.49814 19.3212L3.62225 19.3402L3.75006 19.3466H16.2489C16.8961 19.3466 17.4284 18.8548 17.4925 18.2244L17.4989 18.0966L17.4981 10.3477ZM4.27274 5.49508L2.77701 5.92397C2.15488 6.10237 1.77871 6.72193 1.89091 7.34548L1.91994 7.47011L2.26427 8.67095L2.55936 8.58609L4.27274 5.49508ZM9.02906 4.13123L6.31157 4.91045L4.5982 8.00146L7.31568 7.22224L9.02906 4.13123ZM13.7863 2.7671L11.0689 3.54632L9.35548 6.63733L12.072 5.85838L13.7863 2.7671ZM15.6335 2.53354L14.1128 5.27321L16.6813 4.53694L16.3378 3.33585C16.2306 2.96214 15.9643 2.67719 15.6335 2.53354Z" fill="#6A6D6E"/>
</svg>
