<svg width="19" height="21" viewBox="0 0 19 21" fill="none" xmlns="http://www.w3.org/2000/svg">
<path d="M17.7289 2.76323L17.7799 2.92288L18.3312 4.84541C18.4359 5.21039 18.2512 5.5898 17.9129 5.73845L17.817 5.77308L7.09009 8.84818L18.2492 8.84911C18.6289 8.84911 18.9426 9.13127 18.9923 9.49734L18.9992 9.59911V18.0971C18.9992 19.5597 17.8575 20.7555 16.4167 20.8421L16.2492 20.8471H3.7503C2.28777 20.8471 1.0919 19.7054 1.00532 18.2646L1.0003 18.0971L1.00009 9.70518L0.478333 7.88404C0.075205 6.47816 0.843055 5.01392 2.20415 4.53357L2.3638 4.48257L14.3785 1.03742C15.7844 0.634287 17.2486 1.40214 17.7289 2.76323ZM17.4983 10.3481H2.5003V18.0971C2.5003 18.7012 2.92878 19.2052 3.49838 19.3217L3.62249 19.3407L3.7503 19.3471H16.2492C16.8964 19.3471 17.4287 18.8553 17.4927 18.2249L17.4992 18.0971L17.4983 10.3481ZM4.27298 5.49557L2.77726 5.92446C2.15512 6.10286 1.77896 6.72242 1.89116 7.34596L1.92018 7.4706L2.26452 8.67144L2.5596 8.58658L4.27298 5.49557ZM9.0293 4.13172L6.31182 4.91094L4.59844 8.00195L7.31593 7.22273L9.0293 4.13172ZM13.7866 2.76759L11.0691 3.54681L9.35572 6.63782L12.0723 5.85887L13.7866 2.76759ZM15.6338 2.53403L14.113 5.27369L16.6815 4.53743L16.3381 3.33634C16.2309 2.96262 15.9645 2.67768 15.6338 2.53403Z" fill="#8F4ABF"/>
</svg>
