<svg width="20" height="18" viewBox="0 0 20 18" fill="none" xmlns="http://www.w3.org/2000/svg">
<path d="M9.21967 1.06586C9.50545 0.780082 9.96628 0.772139 10.2617 1.0479L12.0181 2.68721C13.2959 3.87978 14.7188 4.90666 16.2532 5.74361C16.685 5.97913 16.9802 6.40463 17.0498 6.89153L18.4005 16.3462H19.25C19.6642 16.3462 20 16.682 20 17.0962C20 17.5104 19.6642 17.8462 19.25 17.8462H0.75C0.335786 17.8462 0 17.5104 0 17.0962C0 16.682 0.335786 16.3462 0.75 16.3462H1.59953L2.95533 6.8556C3.0203 6.4008 3.28676 5.9995 3.6807 5.76313C5.07826 4.92459 6.36771 3.91782 7.52017 2.76536L9.21967 1.06586ZM3.11476 16.3462H5.24627C6.81781 14.1795 8.00503 11.7575 8.755 9.18619L9.28 7.38619C9.37333 7.06619 9.66667 6.84619 10 6.84619C10.3333 6.84619 10.6267 7.06619 10.72 7.38619L11.245 9.18619C11.995 11.7575 13.1822 14.1795 14.7537 16.3462H16.8852L15.5649 7.10366C15.5623 7.08533 15.5511 7.06932 15.5349 7.06045C13.8899 6.16319 12.3645 5.0623 10.9947 3.78379L9.76797 2.63888L8.58083 3.82602C7.34165 5.0652 5.95517 6.14773 4.45244 7.04937C4.44582 7.05334 4.44134 7.06009 4.44025 7.06773L3.11476 16.3462ZM12.9293 16.3462C11.6793 14.4562 10.6934 12.4028 10 10.2429C9.30662 12.4028 8.3207 14.4562 7.07071 16.3462H12.9293Z" fill="#8F4ABF"/>
</svg>
