<svg width="18" height="18" viewBox="0 0 18 18" fill="none" xmlns="http://www.w3.org/2000/svg">
<path d="M0.5 1.09619C0.5 0.681978 0.835786 0.346191 1.25 0.346191H1.80826C2.75873 0.346191 3.32782 0.985184 3.65325 1.57919C3.87016 1.97513 4.02708 2.43437 4.14982 2.85015C4.18306 2.84753 4.21674 2.84619 4.2508 2.84619H16.7481C17.5783 2.84619 18.1778 3.64061 17.9502 4.43899L16.1224 10.8481C15.7856 12.0294 14.7062 12.844 13.4779 12.844H7.52977C6.29128 12.844 5.2056 12.0161 4.87783 10.8218L4.11734 8.05074L2.85874 3.80197L2.8567 3.79453C2.701 3.2267 2.55487 2.69624 2.33773 2.29989C2.12686 1.91499 1.95877 1.84619 1.80826 1.84619H1.25C0.835786 1.84619 0.5 1.5104 0.5 1.09619ZM5.57283 7.68646L6.32434 10.4248C6.47333 10.9677 6.96682 11.344 7.52977 11.344H13.4779C14.0362 11.344 14.5268 10.9737 14.68 10.4368L16.4168 4.34619H4.58549L5.55906 7.63301C5.56434 7.65079 5.56892 7.66862 5.57283 7.68646ZM9 15.8462C9 16.9508 8.10457 17.8462 7 17.8462C5.89543 17.8462 5 16.9508 5 15.8462C5 14.7416 5.89543 13.8462 7 13.8462C8.10457 13.8462 9 14.7416 9 15.8462ZM7.5 15.8462C7.5 15.57 7.27614 15.3462 7 15.3462C6.72386 15.3462 6.5 15.57 6.5 15.8462C6.5 16.1223 6.72386 16.3462 7 16.3462C7.27614 16.3462 7.5 16.1223 7.5 15.8462ZM16 15.8462C16 16.9508 15.1046 17.8462 14 17.8462C12.8954 17.8462 12 16.9508 12 15.8462C12 14.7416 12.8954 13.8462 14 13.8462C15.1046 13.8462 16 14.7416 16 15.8462ZM14.5 15.8462C14.5 15.57 14.2761 15.3462 14 15.3462C13.7239 15.3462 13.5 15.57 13.5 15.8462C13.5 16.1223 13.7239 16.3462 14 16.3462C14.2761 16.3462 14.5 16.1223 14.5 15.8462Z" fill="#8F4ABF"/>
</svg>
