<svg width="14" height="18" viewBox="0 0 14 18" fill="none" xmlns="http://www.w3.org/2000/svg">
<path d="M13.25 0.0961914C13.6297 0.0961914 13.9435 0.378345 13.9932 0.744421L14 0.846191V16.8462C14 17.2604 13.6642 17.5962 13.25 17.5962C12.8703 17.5962 12.5565 17.314 12.5068 16.948L12.5 16.8462V11.8462H10.25C9.8703 11.8462 9.55651 11.564 9.50685 11.198L9.5 11.0962V3.84619C9.5 1.77512 11.1789 0.0961914 13.25 0.0961914ZM7.25 0.0961914C7.6297 0.0961914 7.94349 0.378345 7.99315 0.744421L8 0.846191V4.84619C8 6.79877 6.60095 8.42459 4.7506 8.77588L4.75 16.8462C4.75 17.2604 4.41421 17.5962 4 17.5962C3.6203 17.5962 3.30651 17.314 3.25685 16.948L3.25 16.8462L3.25039 8.77607C1.46566 8.4377 0.100544 6.91364 0.00531244 5.05414L0 4.84619V0.846191C0 0.431978 0.335786 0.0961914 0.75 0.0961914C1.1297 0.0961914 1.44349 0.378345 1.49315 0.744421L1.5 0.846191V4.84619C1.5 5.96576 2.23593 6.91344 3.25042 7.23187L3.25 0.846191C3.25 0.431978 3.58579 0.0961914 4 0.0961914C4.3797 0.0961914 4.69349 0.378345 4.74315 0.744421L4.75 0.846191L4.75057 7.23156C5.70822 6.93053 6.41742 6.06872 6.49327 5.03106L6.5 4.84619V0.846191C6.5 0.431978 6.83579 0.0961914 7.25 0.0961914ZM12.5 10.3462V1.72422C11.6775 2.01493 11.0745 2.77029 11.0064 3.6749L11 3.84619V10.3462H12.5V1.72422V10.3462Z" fill="#8F4ABF"/>
</svg>
