<svg width="18" height="21" viewBox="0 0 18 21" fill="none" xmlns="http://www.w3.org/2000/svg">
<path d="M5 3.3457C5 1.96499 6.11929 0.845703 7.5 0.845703C8.88071 0.845703 10 1.96499 10 3.3457V4.8457H13.3787C13.9754 4.8457 14.5477 5.08276 14.9697 5.50471L17.7803 8.31537C18.0732 8.60827 18.0732 9.08314 17.7803 9.37603L14.9697 12.1867C14.5477 12.6087 13.9754 12.8457 13.3787 12.8457H10V19.5957C10 20.2861 9.44036 20.8457 8.75 20.8457H6.25C5.55964 20.8457 5 20.2861 5 19.5957V12.8457H2.25C1.00736 12.8457 0 11.8383 0 10.5957V7.0957C0 5.85306 1.00736 4.8457 2.25 4.8457H5V3.3457ZM6.5 4.8457H8.5V3.3457C8.5 2.79342 8.05228 2.3457 7.5 2.3457C6.94772 2.3457 6.5 2.79342 6.5 3.3457V4.8457ZM6.5 12.8457V19.3457H8.5V12.8457H6.5ZM1.5 7.0957V10.5957C1.5 11.0099 1.83579 11.3457 2.25 11.3457H13.3787C13.5776 11.3457 13.7684 11.2667 13.909 11.126L16.1893 8.8457L13.909 6.56537C13.7684 6.42472 13.5776 6.3457 13.3787 6.3457H2.25C1.83579 6.3457 1.5 6.68149 1.5 7.0957Z" fill="#8F4ABF"/>
</svg>
