<svg width="20" height="20" viewBox="0 0 20 20" fill="none" xmlns="http://www.w3.org/2000/svg">
<path d="M1.83885 4.70358C4.77986 0.787977 10.8685 -0.351408 15.2028 2.34346C19.4826 5.00448 21.0566 10.1206 19.3037 14.9208C17.6485 19.4534 13.2873 21.2493 10.144 18.9692C8.96655 18.1151 8.5101 17.0445 8.28947 15.3054L8.18409 14.3175L8.13867 13.92C8.01605 12.986 7.82762 12.5675 7.43435 12.3483C6.89876 12.0498 6.54213 12.0428 5.83887 12.3154L5.48775 12.461L5.30902 12.5389C4.29524 12.9792 3.62085 13.1339 2.76786 12.9551L2.56761 12.908L2.40407 12.8614C-0.384892 11.9971 -0.797981 8.21422 1.83885 4.70358ZM2.82307 11.42L2.94598 11.4565L3.07993 11.4873C3.519 11.5743 3.89425 11.5018 4.51695 11.2455L5.11912 10.9882C6.32126 10.4953 7.10436 10.4471 8.16464 11.0381C9.08223 11.5495 9.43987 12.3357 9.62228 13.6977L9.67548 14.1569L9.72968 14.6886L9.77682 15.111C9.9489 16.4723 10.2617 17.2015 11.0248 17.755C13.3001 19.4055 16.5592 18.0634 17.8947 14.4063C19.411 10.2541 18.0688 5.89176 14.4107 3.61731C10.7365 1.33285 5.5123 2.31048 3.03822 5.60442C0.963432 8.36676 1.21791 10.884 2.82307 11.42ZM14.0476 9.42566C13.8689 8.75883 14.2646 8.07341 14.9314 7.89473C15.5983 7.71605 16.2837 8.11178 16.4624 8.77861C16.6411 9.44545 16.2453 10.1309 15.5785 10.3095C14.9117 10.4882 14.2262 10.0925 14.0476 9.42566ZM14.5421 12.9143C14.3635 12.2475 14.7592 11.5621 15.426 11.3834C16.0929 11.2047 16.7783 11.6004 16.957 12.2673C17.1356 12.9341 16.7399 13.6195 16.0731 13.7982C15.4062 13.9769 14.7208 13.5812 14.5421 12.9143ZM12.0691 6.42298C11.8904 5.75614 12.2861 5.07072 12.9529 4.89205C13.6198 4.71337 14.3052 5.1091 14.4839 5.77593C14.6625 6.44276 14.2668 7.12818 13.6 7.30686C12.9331 7.48554 12.2477 7.08981 12.0691 6.42298ZM12.0406 15.4214C11.8619 14.7545 12.2576 14.0691 12.9245 13.8904C13.5913 13.7118 14.2767 14.1075 14.4554 14.7743C14.6341 15.4411 14.2383 16.1266 13.5715 16.3052C12.9047 16.4839 12.2192 16.0882 12.0406 15.4214ZM8.54365 5.45138C8.36497 4.78455 8.7607 4.09913 9.42753 3.92045C10.0944 3.74178 10.7798 4.1375 10.9585 4.80434C11.1371 5.47117 10.7414 6.15659 10.0746 6.33527C9.40774 6.51394 8.72232 6.11822 8.54365 5.45138Z" fill="#8F4ABF"/>
</svg>
