<svg width="18" height="18" viewBox="0 0 18 18" fill="none" xmlns="http://www.w3.org/2000/svg">
<path d="M0.5 1.0957C0.5 0.68149 0.835786 0.345703 1.25 0.345703H1.80826C2.75873 0.345703 3.32782 0.984696 3.65325 1.5787C3.87016 1.97465 4.02708 2.43388 4.14982 2.84966C4.18306 2.84704 4.21674 2.8457 4.2508 2.8457H16.7481C17.5783 2.8457 18.1778 3.64012 17.9502 4.4385L16.1224 10.8476C15.7856 12.0289 14.7062 12.8435 13.4779 12.8435H7.52977C6.29128 12.8435 5.2056 12.0156 4.87783 10.8213L4.11734 8.05025L2.85874 3.80148L2.8567 3.79404C2.701 3.22621 2.55487 2.69575 2.33773 2.2994C2.12686 1.9145 1.95877 1.8457 1.80826 1.8457H1.25C0.835786 1.8457 0.5 1.50992 0.5 1.0957ZM5.57283 7.68597L6.32434 10.4243C6.47333 10.9672 6.96682 11.3435 7.52977 11.3435H13.4779C14.0362 11.3435 14.5268 10.9732 14.68 10.4363L16.4168 4.3457H4.58549L5.55906 7.63252C5.56434 7.65031 5.56892 7.66813 5.57283 7.68597ZM9 15.8457C9 16.9503 8.10457 17.8457 7 17.8457C5.89543 17.8457 5 16.9503 5 15.8457C5 14.7411 5.89543 13.8457 7 13.8457C8.10457 13.8457 9 14.7411 9 15.8457ZM7.5 15.8457C7.5 15.5696 7.27614 15.3457 7 15.3457C6.72386 15.3457 6.5 15.5696 6.5 15.8457C6.5 16.1218 6.72386 16.3457 7 16.3457C7.27614 16.3457 7.5 16.1218 7.5 15.8457ZM16 15.8457C16 16.9503 15.1046 17.8457 14 17.8457C12.8954 17.8457 12 16.9503 12 15.8457C12 14.7411 12.8954 13.8457 14 13.8457C15.1046 13.8457 16 14.7411 16 15.8457ZM14.5 15.8457C14.5 15.5696 14.2761 15.3457 14 15.3457C13.7239 15.3457 13.5 15.5696 13.5 15.8457C13.5 16.1218 13.7239 16.3457 14 16.3457C14.2761 16.3457 14.5 16.1218 14.5 15.8457Z" fill="#6A6D6E"/>
</svg>
