<svg width="60" height="70" viewBox="0 0 60 70" fill="none" xmlns="http://www.w3.org/2000/svg">
<path d="M30 0C16.1929 0 5 11.1928 5 24.9999C5 31.4397 8.54798 37.6688 12.5593 42.7213C16.6266 47.8442 21.4867 52.1493 24.7447 54.7923C27.8292 57.2946 32.1708 57.2946 35.2553 54.7923C38.5133 52.1493 43.3734 47.8442 47.4407 42.7213C51.452 37.6688 55 31.4397 55 24.9999C55 11.1928 43.8071 0 30 0ZM38.3333 24.9999C38.3333 29.6022 34.6024 33.3332 30 33.3332C25.3976 33.3332 21.6667 29.6022 21.6667 24.9999C21.6667 20.3975 25.3976 16.6666 30 16.6666C34.6024 16.6666 38.3333 20.3975 38.3333 24.9999ZM48.9387 46.1554C47.7277 47.5958 46.4733 48.9614 45.2277 50.2346C46.4131 50.5661 47.5175 50.9339 48.5291 51.3325C50.8455 52.245 52.5508 53.2695 53.635 54.2793C54.7157 55.2858 55 56.0944 55 56.6667C55 57.239 54.7157 58.0477 53.635 59.0541C52.5508 60.064 50.8455 61.0885 48.5291 62.001C43.9113 63.8201 37.3612 65 30 65C22.6388 65 16.0887 63.8201 11.4709 62.001C9.15449 61.0885 7.44925 60.064 6.36497 59.0541C5.28434 58.0477 5 57.239 5 56.6667C5 56.0944 5.28434 55.2858 6.36497 54.2793C7.44925 53.2695 9.15449 52.245 11.4709 51.3325C12.4825 50.9339 13.5869 50.5661 14.7723 50.2346C13.5267 48.9614 12.2723 47.5958 11.0613 46.1554C10.5736 46.3238 10.099 46.4989 9.63825 46.6804C6.97812 47.7284 4.65608 49.0382 2.9572 50.6205C1.25468 52.2062 0 54.2475 0 56.6667C0 59.086 1.25468 61.1273 2.9572 62.7129C4.65608 64.2952 6.97812 65.6051 9.63825 66.653C14.9735 68.7548 22.1734 70 30 70C37.8266 70 45.0265 68.7548 50.3617 66.653C53.0219 65.6051 55.3439 64.2952 57.0428 62.7129C58.7453 61.1273 60 59.086 60 56.6667C60 54.2475 58.7453 52.2062 57.0428 50.6205C55.3439 49.0382 53.0219 47.7284 50.3617 46.6804C49.901 46.4989 49.4264 46.3238 48.9387 46.1554Z" fill="#B083D3"/>
<circle cx="30.5" cy="24.5" r="14.5" fill="#F8FAF9"/>
<path d="M29.2197 15.2197C29.5054 14.9339 29.9663 14.9259 30.2617 15.2017L32.0181 16.841C33.2959 18.0336 34.7188 19.0605 36.2532 19.8974C36.685 20.1329 36.9802 20.5584 37.0498 21.0453L38.4005 30.5H39.25C39.6642 30.5 40 30.8358 40 31.25C40 31.6642 39.6642 32 39.25 32H20.75C20.3358 32 20 31.6642 20 31.25C20 30.8358 20.3358 30.5 20.75 30.5H21.5995L22.9553 21.0094C23.0203 20.5546 23.2868 20.1533 23.6807 19.9169C25.0783 19.0784 26.3677 18.0716 27.5202 16.9192L29.2197 15.2197ZM23.1148 30.5H25.2463C26.8178 28.3333 28.005 25.9113 28.755 23.34L29.28 21.54C29.3733 21.22 29.6667 21 30 21C30.3333 21 30.6267 21.22 30.72 21.54L31.245 23.34C31.995 25.9113 33.1822 28.3333 34.7537 30.5H36.8852L35.5649 21.2575C35.5623 21.2391 35.5511 21.2231 35.5349 21.2143C33.8899 20.317 32.3645 19.2161 30.9947 17.9376L29.768 16.7927L28.5808 17.9798C27.3417 19.219 25.9552 20.3015 24.4524 21.2032C24.4458 21.2071 24.4413 21.2139 24.4403 21.2215L23.1148 30.5ZM32.9293 30.5C31.6793 28.61 30.6934 26.5566 30 24.3967C29.3066 26.5566 28.3207 28.61 27.0707 30.5H32.9293Z" fill="#8F4ABF"/>
</svg>
