<svg width="60" height="70" viewBox="0 0 60 70" fill="none" xmlns="http://www.w3.org/2000/svg">
<path d="M30 0C16.1929 0 5 11.1928 5 24.9999C5 31.4397 8.54798 37.6688 12.5593 42.7213C16.6266 47.8442 21.4867 52.1493 24.7447 54.7923C27.8292 57.2946 32.1708 57.2946 35.2553 54.7923C38.5133 52.1493 43.3734 47.8442 47.4407 42.7213C51.452 37.6688 55 31.4397 55 24.9999C55 11.1928 43.8071 0 30 0ZM38.3333 24.9999C38.3333 29.6022 34.6024 33.3332 30 33.3332C25.3976 33.3332 21.6667 29.6022 21.6667 24.9999C21.6667 20.3975 25.3976 16.6666 30 16.6666C34.6024 16.6666 38.3333 20.3975 38.3333 24.9999ZM48.9387 46.1554C47.7277 47.5958 46.4733 48.9614 45.2277 50.2346C46.4131 50.5661 47.5175 50.9339 48.5291 51.3325C50.8455 52.245 52.5508 53.2695 53.635 54.2793C54.7157 55.2858 55 56.0944 55 56.6667C55 57.239 54.7157 58.0477 53.635 59.0541C52.5508 60.064 50.8455 61.0885 48.5291 62.001C43.9113 63.8201 37.3612 65 30 65C22.6388 65 16.0887 63.8201 11.4709 62.001C9.15449 61.0885 7.44925 60.064 6.36497 59.0541C5.28434 58.0477 5 57.239 5 56.6667C5 56.0944 5.28434 55.2858 6.36497 54.2793C7.44925 53.2695 9.15449 52.245 11.4709 51.3325C12.4825 50.9339 13.5869 50.5661 14.7723 50.2346C13.5267 48.9614 12.2723 47.5958 11.0613 46.1554C10.5736 46.3238 10.099 46.4989 9.63825 46.6804C6.97812 47.7284 4.65608 49.0382 2.9572 50.6205C1.25468 52.2062 0 54.2475 0 56.6667C0 59.086 1.25468 61.1273 2.9572 62.7129C4.65608 64.2952 6.97812 65.6051 9.63825 66.653C14.9735 68.7548 22.1734 70 30 70C37.8266 70 45.0265 68.7548 50.3617 66.653C53.0219 65.6051 55.3439 64.2952 57.0428 62.7129C58.7453 61.1273 60 59.086 60 56.6667C60 54.2475 58.7453 52.2062 57.0428 50.6205C55.3439 49.0382 53.0219 47.7284 50.3617 46.6804C49.901 46.4989 49.4264 46.3238 48.9387 46.1554Z" fill="#B083D3"/>
<circle cx="30.5" cy="24.5" r="14.5" fill="#F8FAF9"/>
<path d="M30 20C30.4142 20 30.75 20.3358 30.75 20.75V24.25H34.25C34.6642 24.25 35 24.5858 35 25C35 25.4142 34.6642 25.75 34.25 25.75H30.75V29.25C30.75 29.6642 30.4142 30 30 30C29.5858 30 29.25 29.6642 29.25 29.25V25.75H25.75C25.3358 25.75 25 25.4142 25 25C25 24.5858 25.3358 24.25 25.75 24.25H29.25V20.75C29.25 20.3358 29.5858 20 30 20ZM21 19.25C21 17.4551 22.4551 16 24.25 16H35.75C37.5449 16 39 17.4551 39 19.25V30.75C39 32.5449 37.5449 34 35.75 34H24.25C22.4551 34 21 32.5449 21 30.75V19.25ZM24.25 17.5C23.2835 17.5 22.5 18.2835 22.5 19.25V30.75C22.5 31.7165 23.2835 32.5 24.25 32.5H35.75C36.7165 32.5 37.5 31.7165 37.5 30.75V19.25C37.5 18.2835 36.7165 17.5 35.75 17.5H24.25Z" fill="#8F4ABF"/>
</svg>
