<svg width="60" height="70" viewBox="0 0 60 70" fill="none" xmlns="http://www.w3.org/2000/svg">
<path d="M30 0C16.1929 0 5 11.1928 5 24.9999C5 31.4397 8.54798 37.6688 12.5593 42.7213C16.6266 47.8442 21.4867 52.1493 24.7447 54.7923C27.8292 57.2946 32.1708 57.2946 35.2553 54.7923C38.5133 52.1493 43.3734 47.8442 47.4407 42.7213C51.452 37.6688 55 31.4397 55 24.9999C55 11.1928 43.8071 0 30 0ZM38.3333 24.9999C38.3333 29.6022 34.6024 33.3332 30 33.3332C25.3976 33.3332 21.6667 29.6022 21.6667 24.9999C21.6667 20.3975 25.3976 16.6666 30 16.6666C34.6024 16.6666 38.3333 20.3975 38.3333 24.9999ZM48.9387 46.1554C47.7277 47.5958 46.4733 48.9614 45.2277 50.2346C46.4131 50.5661 47.5175 50.9339 48.5291 51.3325C50.8455 52.245 52.5508 53.2695 53.635 54.2793C54.7157 55.2858 55 56.0944 55 56.6667C55 57.239 54.7157 58.0477 53.635 59.0541C52.5508 60.064 50.8455 61.0885 48.5291 62.001C43.9113 63.8201 37.3612 65 30 65C22.6388 65 16.0887 63.8201 11.4709 62.001C9.15449 61.0885 7.44925 60.064 6.36497 59.0541C5.28434 58.0477 5 57.239 5 56.6667C5 56.0944 5.28434 55.2858 6.36497 54.2793C7.44925 53.2695 9.15449 52.245 11.4709 51.3325C12.4825 50.9339 13.5869 50.5661 14.7723 50.2346C13.5267 48.9614 12.2723 47.5958 11.0613 46.1554C10.5736 46.3238 10.099 46.4989 9.63825 46.6804C6.97812 47.7284 4.65608 49.0382 2.9572 50.6205C1.25468 52.2062 0 54.2475 0 56.6667C0 59.086 1.25468 61.1273 2.9572 62.7129C4.65608 64.2952 6.97812 65.6051 9.63825 66.653C14.9735 68.7548 22.1734 70 30 70C37.8266 70 45.0265 68.7548 50.3617 66.653C53.0219 65.6051 55.3439 64.2952 57.0428 62.7129C58.7453 61.1273 60 59.086 60 56.6667C60 54.2475 58.7453 52.2062 57.0428 50.6205C55.3439 49.0382 53.0219 47.7284 50.3617 46.6804C49.901 46.4989 49.4264 46.3238 48.9387 46.1554Z" fill="#B083D3"/>
<circle cx="30.5" cy="24.5" r="14.5" fill="#F8FAF9"/>
<path d="M21.8389 18.8576C24.7799 14.942 30.8685 13.8026 35.2028 16.4975C39.4826 19.1585 41.0566 24.2746 39.3037 29.0749C37.6485 33.6075 33.2873 35.4033 30.144 33.1233C28.9666 32.2692 28.5101 31.1985 28.2895 29.4595L28.1841 28.4715L28.1387 28.0741C28.016 27.14 27.8276 26.7216 27.4343 26.5024C26.8988 26.2038 26.5421 26.1969 25.8389 26.4694L25.4878 26.615L25.309 26.693C24.2952 27.1332 23.6209 27.2879 22.7679 27.1092L22.5676 27.062L22.4041 27.0154C19.6151 26.1512 19.202 22.3683 21.8389 18.8576ZM22.8231 25.5741L22.946 25.6105L23.0799 25.6414C23.519 25.7283 23.8943 25.6558 24.5169 25.3995L25.1191 25.1423C26.3213 24.6494 27.1044 24.6012 28.1646 25.1921C29.0822 25.7036 29.4399 26.4897 29.6223 27.8518L29.6755 28.3109L29.7297 28.8427L29.7768 29.2651C29.9489 30.6263 30.2617 31.3556 31.0248 31.9091C33.3001 33.5595 36.5592 32.2175 37.8947 28.5604C39.411 24.4082 38.0688 20.0458 34.4107 17.7714C30.7365 15.4869 25.5123 16.4645 23.0382 19.7585C20.9634 22.5208 21.2179 25.038 22.8231 25.5741ZM34.0476 23.5797C33.8689 22.9129 34.2646 22.2275 34.9314 22.0488C35.5983 21.8701 36.2837 22.2658 36.4624 22.9327C36.6411 23.5995 36.2453 24.2849 35.5785 24.4636C34.9117 24.6423 34.2262 24.2465 34.0476 23.5797ZM34.5421 27.0684C34.3635 26.4015 34.7592 25.7161 35.426 25.5374C36.0929 25.3588 36.7783 25.7545 36.957 26.4213C37.1356 27.0882 36.7399 27.7736 36.0731 27.9523C35.4062 28.1309 34.7208 27.7352 34.5421 27.0684ZM32.0691 20.577C31.8904 19.9102 32.2861 19.2248 32.9529 19.0461C33.6198 18.8674 34.3052 19.2631 34.4839 19.93C34.6625 20.5968 34.2668 21.2822 33.6 21.4609C32.9331 21.6396 32.2477 21.2439 32.0691 20.577ZM32.0406 29.5754C31.8619 28.9086 32.2576 28.2232 32.9245 28.0445C33.5913 27.8658 34.2767 28.2615 34.4554 28.9284C34.6341 29.5952 34.2383 30.2806 33.5715 30.4593C32.9047 30.638 32.2192 30.2422 32.0406 29.5754ZM28.5436 19.6054C28.365 18.9386 28.7607 18.2532 29.4275 18.0745C30.0944 17.8958 30.7798 18.2916 30.9585 18.9584C31.1371 19.6252 30.7414 20.3106 30.0746 20.4893C29.4077 20.668 28.7223 20.2723 28.5436 19.6054Z" fill="#8F4ABF"/>
</svg>
