<svg width="60" height="70" viewBox="0 0 60 70" fill="none" xmlns="http://www.w3.org/2000/svg">
<path d="M30 0C16.1929 0 5 11.1928 5 24.9999C5 31.4397 8.54798 37.6688 12.5593 42.7213C16.6266 47.8442 21.4867 52.1493 24.7447 54.7923C27.8292 57.2946 32.1708 57.2946 35.2553 54.7923C38.5133 52.1493 43.3734 47.8442 47.4407 42.7213C51.452 37.6688 55 31.4397 55 24.9999C55 11.1928 43.8071 0 30 0ZM38.3333 24.9999C38.3333 29.6022 34.6024 33.3332 30 33.3332C25.3976 33.3332 21.6667 29.6022 21.6667 24.9999C21.6667 20.3975 25.3976 16.6666 30 16.6666C34.6024 16.6666 38.3333 20.3975 38.3333 24.9999ZM48.9387 46.1554C47.7277 47.5958 46.4733 48.9614 45.2277 50.2346C46.4131 50.5661 47.5175 50.9339 48.5291 51.3325C50.8455 52.245 52.5508 53.2695 53.635 54.2793C54.7157 55.2858 55 56.0944 55 56.6667C55 57.239 54.7157 58.0477 53.635 59.0541C52.5508 60.064 50.8455 61.0885 48.5291 62.001C43.9113 63.8201 37.3612 65 30 65C22.6388 65 16.0887 63.8201 11.4709 62.001C9.15449 61.0885 7.44925 60.064 6.36497 59.0541C5.28434 58.0477 5 57.239 5 56.6667C5 56.0944 5.28434 55.2858 6.36497 54.2793C7.44925 53.2695 9.15449 52.245 11.4709 51.3325C12.4825 50.9339 13.5869 50.5661 14.7723 50.2346C13.5267 48.9614 12.2723 47.5958 11.0613 46.1554C10.5736 46.3238 10.099 46.4989 9.63825 46.6804C6.97812 47.7284 4.65608 49.0382 2.9572 50.6205C1.25468 52.2062 0 54.2475 0 56.6667C0 59.086 1.25468 61.1273 2.9572 62.7129C4.65608 64.2952 6.97812 65.6051 9.63825 66.653C14.9735 68.7548 22.1734 70 30 70C37.8266 70 45.0265 68.7548 50.3617 66.653C53.0219 65.6051 55.3439 64.2952 57.0428 62.7129C58.7453 61.1273 60 59.086 60 56.6667C60 54.2475 58.7453 52.2062 57.0428 50.6205C55.3439 49.0382 53.0219 47.7284 50.3617 46.6804C49.901 46.4989 49.4264 46.3238 48.9387 46.1554Z" fill="#B083D3"/>
<circle cx="30.5" cy="24.5" r="14.5" fill="#F8FAF9"/>
<path d="M36.25 16.25C36.6297 16.25 36.9435 16.5322 36.9932 16.8982L37 17V33C37 33.4142 36.6642 33.75 36.25 33.75C35.8703 33.75 35.5565 33.4678 35.5068 33.1018L35.5 33V28H33.25C32.8703 28 32.5565 27.7178 32.5068 27.3518L32.5 27.25V20C32.5 17.9289 34.1789 16.25 36.25 16.25ZM30.25 16.25C30.6297 16.25 30.9435 16.5322 30.9932 16.8982L31 17V21C31 22.9526 29.6009 24.5784 27.7506 24.9297L27.75 33C27.75 33.4142 27.4142 33.75 27 33.75C26.6203 33.75 26.3065 33.4678 26.2568 33.1018L26.25 33L26.2504 24.9299C24.4657 24.5915 23.1005 23.0675 23.0053 21.2079L23 21V17C23 16.5858 23.3358 16.25 23.75 16.25C24.1297 16.25 24.4435 16.5322 24.4932 16.8982L24.5 17V21C24.5 22.1196 25.2359 23.0672 26.2504 23.3857L26.25 17C26.25 16.5858 26.5858 16.25 27 16.25C27.3797 16.25 27.6935 16.5322 27.7432 16.8982L27.75 17L27.7506 23.3854C28.7082 23.0843 29.4174 22.2225 29.4933 21.1849L29.5 21V17C29.5 16.5858 29.8358 16.25 30.25 16.25ZM35.5 26.5V17.878C34.6775 18.1687 34.0745 18.9241 34.0064 19.8287L34 20V26.5H35.5V17.878V26.5Z" fill="#8F4ABF"/>
</svg>
