<svg width="60" height="70" viewBox="0 0 60 70" fill="none" xmlns="http://www.w3.org/2000/svg">
<path d="M30 0C16.1929 0 5 11.1928 5 24.9999C5 31.4397 8.54798 37.6688 12.5593 42.7213C16.6266 47.8442 21.4867 52.1493 24.7447 54.7923C27.8292 57.2946 32.1708 57.2946 35.2553 54.7923C38.5133 52.1493 43.3734 47.8442 47.4407 42.7213C51.452 37.6688 55 31.4397 55 24.9999C55 11.1928 43.8071 0 30 0ZM38.3333 24.9999C38.3333 29.6022 34.6024 33.3332 30 33.3332C25.3976 33.3332 21.6667 29.6022 21.6667 24.9999C21.6667 20.3975 25.3976 16.6666 30 16.6666C34.6024 16.6666 38.3333 20.3975 38.3333 24.9999ZM48.9387 46.1554C47.7277 47.5958 46.4733 48.9614 45.2277 50.2346C46.4131 50.5661 47.5175 50.9339 48.5291 51.3325C50.8455 52.245 52.5508 53.2695 53.635 54.2793C54.7157 55.2858 55 56.0944 55 56.6667C55 57.239 54.7157 58.0477 53.635 59.0541C52.5508 60.064 50.8455 61.0885 48.5291 62.001C43.9113 63.8201 37.3612 65 30 65C22.6388 65 16.0887 63.8201 11.4709 62.001C9.15449 61.0885 7.44925 60.064 6.36497 59.0541C5.28434 58.0477 5 57.239 5 56.6667C5 56.0944 5.28434 55.2858 6.36497 54.2793C7.44925 53.2695 9.15449 52.245 11.4709 51.3325C12.4825 50.9339 13.5869 50.5661 14.7723 50.2346C13.5267 48.9614 12.2723 47.5958 11.0613 46.1554C10.5736 46.3238 10.099 46.4989 9.63825 46.6804C6.97812 47.7284 4.65608 49.0382 2.9572 50.6205C1.25468 52.2062 0 54.2475 0 56.6667C0 59.086 1.25468 61.1273 2.9572 62.7129C4.65608 64.2952 6.97812 65.6051 9.63825 66.653C14.9735 68.7548 22.1734 70 30 70C37.8266 70 45.0265 68.7548 50.3617 66.653C53.0219 65.6051 55.3439 64.2952 57.0428 62.7129C58.7453 61.1273 60 59.086 60 56.6667C60 54.2475 58.7453 52.2062 57.0428 50.6205C55.3439 49.0382 53.0219 47.7284 50.3617 46.6804C49.901 46.4989 49.4264 46.3238 48.9387 46.1554Z" fill="#B083D3"/>
<circle cx="30.5" cy="24.5" r="14.5" fill="#F8FAF9"/>
<g clip-path="url(#clip0_2070_17701)">
<path d="M23.9377 18.0524C23.9205 18.0577 23.9032 18.0638 23.8868 18.0706C23.8695 18.0767 23.8523 18.0843 23.8359 18.0919C23.8194 18.1002 23.803 18.1078 23.7865 18.117C23.7771 18.1215 23.7677 18.1268 23.7583 18.1321C23.7466 18.1382 23.7356 18.1451 23.7247 18.1519C23.709 18.1618 23.6933 18.1716 23.6785 18.1823C23.6041 18.2339 23.5328 18.2954 23.4686 18.3683C23.4427 18.3972 23.4192 18.4268 23.3973 18.4579C23.3856 18.4731 23.3746 18.4891 23.3644 18.505C23.3425 18.5377 23.3221 18.5711 23.3041 18.606C23.2947 18.6227 23.2861 18.6402 23.2775 18.6584C23.2704 18.6736 23.2634 18.6888 23.2571 18.7047C23.2117 18.808 23.1796 18.9181 23.1624 19.0298C23.1592 19.0457 23.1569 19.0609 23.1553 19.0761C23.1498 19.1148 23.1467 19.1528 23.1451 19.1923C23.1443 19.2136 23.1436 19.2356 23.1436 19.2568C23.1436 19.2781 23.1443 19.3001 23.1451 19.3214C23.1467 19.3601 23.1498 19.3996 23.1553 19.4376C23.1569 19.4543 23.16 19.471 23.1624 19.4877C23.1694 19.5302 23.1788 19.572 23.1898 19.6145C23.1945 19.6343 23.1999 19.6533 23.2062 19.6723C23.2117 19.692 23.218 19.7102 23.225 19.73C23.2321 19.7482 23.2391 19.7672 23.2469 19.7854C23.2696 19.8408 23.2963 19.8955 23.3268 19.9472C23.3354 19.9631 23.3448 19.9783 23.355 19.9935C23.3683 20.0148 23.3824 20.0353 23.3973 20.0558C23.4192 20.0869 23.4427 20.1158 23.4686 20.1446C23.496 20.1758 23.5242 20.2039 23.5531 20.2304C23.5672 20.2449 23.5821 20.257 23.597 20.2692C23.6119 20.2813 23.6275 20.2942 23.6432 20.3056C23.6581 20.317 23.6738 20.3276 23.6894 20.3383C23.7051 20.3489 23.7215 20.3595 23.7372 20.3686C23.7536 20.3785 23.7701 20.3869 23.7865 20.396C23.8077 20.4074 23.8288 20.4172 23.8507 20.4271C23.8625 20.4324 23.8742 20.4378 23.8868 20.4423C23.9032 20.4491 23.9205 20.456 23.9377 20.4605C24.0019 20.4826 24.0693 20.4962 24.1343 20.5061C24.1405 20.5069 24.146 20.5084 24.1523 20.5091C24.1664 20.5091 24.1789 20.5099 24.1914 20.5107C24.193 20.5107 24.1946 20.5107 24.1953 20.5107C24.1938 20.5107 24.1922 20.5107 24.1914 20.5107C24.2126 20.5114 24.2329 20.5122 24.2525 20.5122H28.693C29.3055 20.5122 29.8028 19.9494 29.8028 19.2561C29.8028 18.5627 29.3063 18 28.6938 18H24.2533C24.2212 18 24.1891 18.0023 24.1531 18.003C24.0826 18.0137 24.0082 18.0273 23.9377 18.0516V18.0524Z" fill="#8F4ABF"/>
<path d="M39 25.6467C39 25.6407 38.9992 25.6346 38.9992 25.6285C39 25.5822 39 25.5518 39 25.5419H38.9945C38.9945 25.5351 38.9945 25.529 38.9937 25.5222C38.9898 25.4888 38.9851 25.4539 38.9781 25.4204C38.9765 25.4121 38.9757 25.4037 38.9734 25.3961C38.9695 25.3779 38.9655 25.3597 38.9601 25.3422C38.9546 25.3225 38.9491 25.3035 38.9428 25.2845C38.9303 25.2465 38.917 25.2093 38.9005 25.1729C38.8935 25.1546 38.8849 25.1364 38.8755 25.1189C38.8669 25.1007 38.8575 25.084 38.8481 25.0665C38.8387 25.0491 38.8285 25.0324 38.8175 25.0157C38.769 24.9374 38.7102 24.863 38.6421 24.7954L38.621 24.7749L38.2631 24.4279L37.7422 23.9229L37.2214 24.4279L36.8628 24.7749C36.8878 24.7514 36.9144 24.7286 36.9419 24.7066C36.9105 24.7316 36.8816 24.7575 36.8534 24.7848C36.822 24.8152 36.7938 24.8456 36.7672 24.8774C36.7531 24.8926 36.7406 24.9093 36.7281 24.9253C36.7155 24.942 36.703 24.9587 36.692 24.9762C36.6803 24.9929 36.6701 25.0096 36.6591 25.0271C36.6482 25.0445 36.638 25.062 36.6286 25.0795C36.6192 25.0977 36.6098 25.1159 36.6012 25.1334C36.5926 25.1516 36.584 25.1698 36.5761 25.1873C36.5683 25.2055 36.5612 25.2245 36.555 25.2435C36.5479 25.2617 36.5417 25.2807 36.5362 25.2997C36.5236 25.3392 36.5143 25.3794 36.5056 25.4204C36.4947 25.4744 36.4876 25.529 36.4853 25.5837C36.4845 25.605 36.4837 25.6262 36.4837 25.6467C36.4837 25.6673 36.4845 25.6893 36.4853 25.7098C36.4853 25.7143 36.4861 25.7189 36.4868 25.7234C36.4579 26.2034 36.2934 27.6653 35.3748 28.5652C34.8477 29.0816 34.1421 29.3322 33.2187 29.3322C32.3604 29.3322 31.8482 28.7695 31.0172 27.7754C30.0727 26.6461 28.7797 25.0992 26.3974 25.4941C24.965 25.7318 23.7174 26.9712 23.3626 28.5075C22.9937 30.1084 23 31.9226 23 31.9993L25.5061 31.9864C25.5061 31.9705 25.5022 30.3651 25.8084 29.0383C25.9619 28.3731 26.4945 27.944 26.8203 27.8901C27.6763 27.7473 28.1172 28.1658 29.0703 29.3064C29.985 30.4007 31.1237 31.7632 33.2187 31.7632C34.8226 31.7632 36.1469 31.2627 37.1549 30.2762C38.74 28.7247 38.9632 26.4472 38.9945 25.7508C38.9977 25.7166 38.9992 25.6824 38.9992 25.6483L39 25.6467Z" fill="url(#paint0_linear_2070_17701)"/>
<path d="M33.9284 23.6881C33.9339 23.7048 33.9402 23.7215 33.9472 23.7375C33.9535 23.7542 33.9613 23.7709 33.9692 23.7868C33.9778 23.8028 33.9856 23.8187 33.995 23.8347C33.9997 23.8438 34.0052 23.8529 34.0107 23.862C34.0169 23.8734 34.024 23.884 34.031 23.8947C34.0412 23.9098 34.0514 23.925 34.0624 23.9395C34.1156 24.0116 34.1791 24.0807 34.2542 24.143C34.284 24.168 34.3145 24.1908 34.3467 24.2121C34.3623 24.2235 34.3788 24.2341 34.3952 24.244C34.4289 24.2653 34.4633 24.285 34.4994 24.3025C34.5166 24.3116 34.5346 24.3199 34.5534 24.3283C34.5691 24.3351 34.5847 24.342 34.6012 24.348C34.7077 24.3921 34.8213 24.4232 34.9364 24.4399C34.9528 24.443 34.9685 24.4452 34.9842 24.4468C35.0241 24.4521 35.0633 24.4551 35.104 24.4566C35.1259 24.4574 35.1486 24.4581 35.1705 24.4581C35.1925 24.4581 35.2152 24.4574 35.2371 24.4566C35.2771 24.4551 35.3178 24.4521 35.3569 24.4468C35.3742 24.4452 35.3914 24.4422 35.4086 24.4399C35.4525 24.4331 35.4956 24.424 35.5394 24.4133C35.5598 24.4088 35.5794 24.4035 35.5989 24.3974C35.6193 24.3921 35.6381 24.386 35.6585 24.3792C35.6773 24.3723 35.6968 24.3655 35.7156 24.3579C35.7728 24.3359 35.8292 24.3101 35.8824 24.2804C35.8989 24.2721 35.9145 24.263 35.9302 24.2531C35.9521 24.2402 35.9733 24.2265 35.9944 24.2121C36.0265 24.1908 36.0563 24.168 36.0861 24.143C36.1182 24.1164 36.1471 24.0891 36.1746 24.061C36.1894 24.0473 36.202 24.0329 36.2145 24.0184C36.227 24.004 36.2403 23.9888 36.2521 23.9736C36.2638 23.9592 36.2748 23.944 36.2858 23.9288C36.2967 23.9136 36.3077 23.8977 36.3171 23.8825C36.3273 23.8666 36.3359 23.8506 36.3453 23.8347C36.357 23.8142 36.3672 23.7937 36.3774 23.7724C36.3829 23.761 36.3884 23.7496 36.3931 23.7375C36.4001 23.7215 36.4072 23.7048 36.4119 23.6881C36.4346 23.6258 36.4487 23.5605 36.4588 23.4975C36.4596 23.4914 36.4612 23.4861 36.462 23.48C36.462 23.4663 36.4628 23.4542 36.4635 23.442C36.4635 23.4405 36.4635 23.439 36.4635 23.4382C36.4635 23.4398 36.4635 23.4413 36.4635 23.442C36.4643 23.4215 36.4651 23.4018 36.4651 23.3828V19.0761C36.4651 18.4822 35.8848 18 35.1698 18C34.4547 18 33.876 18.4822 33.876 19.0761V23.382C33.876 23.4132 33.8783 23.4443 33.8791 23.4793C33.8901 23.5476 33.9042 23.6197 33.9292 23.6881H33.9284Z" fill="#B083D3"/>
<path d="M27.2683 23.6881C27.2738 23.7048 27.28 23.7215 27.2871 23.7375C27.2934 23.7542 27.3012 23.7709 27.309 23.7868C27.3176 23.8028 27.3255 23.8187 27.3349 23.8347C27.3396 23.8438 27.345 23.8529 27.3505 23.862C27.3568 23.8734 27.3638 23.884 27.3709 23.8947C27.3811 23.9098 27.3912 23.925 27.4022 23.9395C27.4555 24.0116 27.5189 24.0807 27.5941 24.143C27.6238 24.168 27.6544 24.1908 27.6865 24.2121C27.7022 24.2235 27.7186 24.2341 27.7351 24.244C27.7687 24.2653 27.8032 24.285 27.8392 24.3025C27.8564 24.3116 27.8745 24.3199 27.8933 24.3283C27.9089 24.3351 27.9246 24.342 27.941 24.348C28.0475 24.3921 28.1611 24.4232 28.2762 24.4399C28.2927 24.443 28.3083 24.4452 28.324 24.4468C28.3639 24.4521 28.4031 24.4551 28.4438 24.4566C28.4657 24.4574 28.4885 24.4581 28.5104 24.4581C28.5323 24.4581 28.555 24.4574 28.577 24.4566C28.6169 24.4551 28.6576 24.4521 28.6968 24.4468C28.714 24.4452 28.7312 24.4422 28.7485 24.4399C28.7923 24.4331 28.8354 24.424 28.8793 24.4133C28.8996 24.4088 28.9192 24.4035 28.9388 24.3974C28.9591 24.3921 28.9779 24.386 28.9983 24.3792C29.0171 24.3723 29.0367 24.3655 29.0555 24.3579C29.1126 24.3359 29.169 24.3101 29.2223 24.2804C29.2387 24.2721 29.2544 24.263 29.2701 24.2531C29.292 24.2402 29.3131 24.2265 29.3343 24.2121C29.3664 24.1908 29.3961 24.168 29.4259 24.143C29.458 24.1164 29.487 24.0891 29.5144 24.061C29.5293 24.0473 29.5418 24.0329 29.5543 24.0184C29.5669 24.004 29.5802 23.9888 29.5919 23.9736C29.6037 23.9592 29.6146 23.944 29.6256 23.9288C29.6366 23.9136 29.6475 23.8977 29.6569 23.8825C29.6671 23.8666 29.6757 23.8506 29.6851 23.8347C29.6969 23.8142 29.7071 23.7937 29.7172 23.7724C29.7227 23.761 29.7282 23.7496 29.7329 23.7375C29.74 23.7215 29.747 23.7048 29.7517 23.6881C29.7744 23.6258 29.7885 23.5605 29.7987 23.4975C29.7995 23.4914 29.801 23.4861 29.8018 23.48C29.8018 23.4663 29.8026 23.4542 29.8034 23.442C29.8034 23.4405 29.8034 23.439 29.8034 23.4382C29.8034 23.4398 29.8034 23.4413 29.8034 23.442C29.8042 23.4215 29.805 23.4018 29.805 23.3828V19.0761C29.805 18.4822 29.2246 18 28.5096 18C27.7946 18 27.2158 18.4822 27.2158 19.0761V23.382C27.2158 23.4132 27.2182 23.4443 27.219 23.4793C27.2299 23.5476 27.244 23.6197 27.2691 23.6881H27.2683Z" fill="#B083D3"/>
</g>
<defs>
<linearGradient id="paint0_linear_2070_17701" x1="37.4509" y1="23.9229" x2="24.0739" y2="31.8658" gradientUnits="userSpaceOnUse">
<stop stop-color="#B083D3"/>
<stop offset="1" stop-color="#8F4ABF"/>
</linearGradient>
<clipPath id="clip0_2070_17701">
<rect width="16" height="14" fill="white" transform="translate(23 18)"/>
</clipPath>
</defs>
</svg>
