<svg width="130" height="28" viewBox="0 0 130 28" fill="none" xmlns="http://www.w3.org/2000/svg">
<g clip-path="url(#clip0_1542_766)">
<path d="M10.8491 14.5627L4.91687 6H0V22H5.15088V13.436L11.0831 22H16V6H10.8491V14.5627Z" fill="white"/>
</g>
<path d="M40.27 11.418H36.868V10.104H40.27V5.37H41.8V19.986H40.27V11.418ZM44.968 20.76H43.438V5.028H44.968V20.76ZM39.19 16.242C38.074 16.512 35.932 16.728 33.97 16.764H32.476V6.72H34.06V15.396C35.608 15.396 37.876 15.234 38.956 14.928L39.19 16.242ZM60.2362 20.76H58.6342V5.028H60.2362V20.76ZM47.8162 11.76C47.8162 8.646 49.0762 6.216 51.8662 6.216C54.6562 6.216 55.8982 8.646 55.8982 11.778C55.8982 14.892 54.6562 17.34 51.8662 17.34C49.0762 17.34 47.8162 14.892 47.8162 11.76ZM54.3142 11.778C54.3142 9.348 53.4862 7.584 51.8662 7.584C50.2642 7.584 49.4362 9.348 49.4362 11.778C49.4362 14.208 50.2642 15.954 51.8662 15.954C53.4862 15.954 54.3142 14.208 54.3142 11.778ZM74.2444 12.138H71.4184V10.788H74.2444V5.028H75.8284V20.76H74.2444V12.138ZM70.7164 16.8H63.3184V6.306H64.8844V10.266H69.1144V6.288H70.7164V16.8ZM69.1144 15.504V11.526H64.8844V15.504H69.1144ZM97.3372 18.762H83.1352V17.466H89.3992V14.982H84.8452V9.924H93.9892V7.62H84.8092V6.324H95.5732V11.22H86.4292V13.686H96.0052V14.982H91.0012V17.466H97.3372V18.762ZM112.911 18.474H98.7094V17.178H112.911V18.474ZM111.021 6.81C111.021 10.392 110.751 14.01 110.283 16.044L108.735 15.846C109.131 14.334 109.401 10.464 109.401 8.088H100.185V6.81H111.021ZM127.19 16.458H125.588V5.028H127.19V16.458ZM127.55 20.274H116.84V15.378H118.442V18.996H127.55V20.274ZM118.838 6.09C121.268 6.09 123.05 7.764 123.05 10.014C123.05 12.282 121.268 13.848 118.838 13.848C116.426 13.848 114.644 12.282 114.644 10.032C114.644 7.764 116.426 6.09 118.838 6.09ZM118.838 7.458C117.362 7.458 116.318 8.538 116.318 9.996C116.318 11.436 117.362 12.516 118.838 12.516C120.386 12.516 121.358 11.454 121.358 10.014C121.358 8.52 120.386 7.458 118.838 7.458Z" fill="white"/>
<defs>
<clipPath id="clip0_1542_766">
<rect width="16" height="16" fill="white" transform="translate(0 6)"/>
</clipPath>
</defs>
</svg>
