<svg width="290" height="28" viewBox="0 0 290 28" fill="none" xmlns="http://www.w3.org/2000/svg">
<g clip-path="url(#clip0_1052_1309)">
<path fill-rule="evenodd" clip-rule="evenodd" d="M91.5 5.59998C86.5292 5.59998 82.5 8.71293 82.5 12.5523C82.5 14.94 84.0584 17.0449 86.4315 18.2969L85.433 21.9445C85.3448 22.2668 85.7134 22.5237 85.9965 22.3369L90.3733 19.4482C90.7427 19.4838 91.1181 19.5046 91.5 19.5046C96.4705 19.5046 100.5 16.3918 100.5 12.5523C100.5 8.71293 96.4705 5.59998 91.5 5.59998Z" fill="black"/>
</g>
<path d="M117.158 6.558C117.14 12.048 114.638 15.72 110.048 18.132L108.86 16.8C111.182 15.738 113.126 14.028 114.224 11.814L109.526 12.318L109.238 10.716L114.836 10.302C115.034 9.582 115.178 8.844 115.232 8.052H110.048V6.558H117.158ZM121.496 4.884V11.148H123.98V12.678H121.496V20.922H119.642V4.884H121.496ZM132.732 6.558C132.714 12.048 130.212 15.72 125.622 18.132L124.434 16.8C126.756 15.738 128.7 14.028 129.798 11.814L125.1 12.318L124.812 10.716L130.41 10.302C130.608 9.582 130.752 8.844 130.806 8.052H125.622V6.558H132.732ZM137.07 4.884V11.148H139.554V12.678H137.07V20.922H135.216V4.884H137.07ZM154.678 18.87H140.188V17.394H146.488V14.658C143.518 14.37 141.628 12.678 141.628 10.284C141.628 7.638 143.95 5.874 147.424 5.874C150.952 5.874 153.256 7.638 153.256 10.284C153.256 12.696 151.33 14.388 148.324 14.676V17.394H154.678V18.87ZM151.402 10.302C151.402 8.592 149.836 7.386 147.424 7.386C145.066 7.386 143.482 8.592 143.482 10.302C143.482 11.994 145.066 13.146 147.424 13.146C149.818 13.146 151.402 11.994 151.402 10.302ZM173.577 14.73H168.627V17.412H174.981V18.888H160.491V17.412H166.791V14.73H162.345V9.546H171.273V7.476H162.291V6H173.109V11.04H164.199V13.236H173.577V14.73ZM190.555 18.582H176.065V17.088H190.555V18.582ZM188.665 6.612C188.665 10.86 188.395 13.866 187.963 15.972L186.145 15.738C186.541 14.136 186.811 10.662 186.811 8.07H177.739V6.612H188.665ZM204.834 16.512H202.998V4.884H204.834V16.512ZM205.212 20.454H194.232V15.414H196.068V18.978H205.212V20.454ZM200.334 9.996C200.334 12.282 198.678 13.92 196.23 13.92C193.782 13.92 192.09 12.282 192.09 10.014C192.09 7.728 193.764 6.072 196.23 6.072C198.678 6.072 200.334 7.71 200.334 9.996ZM198.498 9.996C198.498 8.592 197.634 7.602 196.23 7.602C194.862 7.602 193.944 8.628 193.944 9.996C193.944 11.31 194.862 12.354 196.23 12.354C197.634 12.354 198.498 11.31 198.498 9.996Z" fill="black" fill-opacity="0.85"/>
<defs>
<clipPath id="clip0_1052_1309">
<rect width="17.9999" height="18" fill="white" transform="translate(82.5 5)"/>
</clipPath>
</defs>
</svg>
