<svg width="376" height="70" viewBox="0 0 376 70" fill="none" xmlns="http://www.w3.org/2000/svg">
<g filter="url(#filter0_d_829_36724)">
<rect x="8" y="2" width="360" height="54" rx="4" fill="#03C75A"/>
<g clip-path="url(#clip0_829_36724)">
<path d="M133.849 29.5627L127.917 21H123V37H128.151V28.436L134.083 37H139V21H133.849V29.5627Z" fill="white"/>
</g>
<path d="M163.27 26.418H159.868V25.104H163.27V20.37H164.8V34.986H163.27V26.418ZM167.968 35.76H166.438V20.028H167.968V35.76ZM162.19 31.242C161.074 31.512 158.932 31.728 156.97 31.764H155.476V21.72H157.06V30.396C158.608 30.396 160.876 30.234 161.956 29.928L162.19 31.242ZM183.236 35.76H181.634V20.028H183.236V35.76ZM170.816 26.76C170.816 23.646 172.076 21.216 174.866 21.216C177.656 21.216 178.898 23.646 178.898 26.778C178.898 29.892 177.656 32.34 174.866 32.34C172.076 32.34 170.816 29.892 170.816 26.76ZM177.314 26.778C177.314 24.348 176.486 22.584 174.866 22.584C173.264 22.584 172.436 24.348 172.436 26.778C172.436 29.208 173.264 30.954 174.866 30.954C176.486 30.954 177.314 29.208 177.314 26.778ZM197.244 27.138H194.418V25.788H197.244V20.028H198.828V35.76H197.244V27.138ZM193.716 31.8H186.318V21.306H187.884V25.266H192.114V21.288H193.716V31.8ZM192.114 30.504V26.526H187.884V30.504H192.114ZM220.337 33.762H206.135V32.466H212.399V29.982H207.845V24.924H216.989V22.62H207.809V21.324H218.573V26.22H209.429V28.686H219.005V29.982H214.001V32.466H220.337V33.762ZM235.911 33.474H221.709V32.178H235.911V33.474ZM234.021 21.81C234.021 25.392 233.751 29.01 233.283 31.044L231.735 30.846C232.131 29.334 232.401 25.464 232.401 23.088H223.185V21.81H234.021ZM250.19 31.458H248.588V20.028H250.19V31.458ZM250.55 35.274H239.84V30.378H241.442V33.996H250.55V35.274ZM241.838 21.09C244.268 21.09 246.05 22.764 246.05 25.014C246.05 27.282 244.268 28.848 241.838 28.848C239.426 28.848 237.644 27.282 237.644 25.032C237.644 22.764 239.426 21.09 241.838 21.09ZM241.838 22.458C240.362 22.458 239.318 23.538 239.318 24.996C239.318 26.436 240.362 27.516 241.838 27.516C243.386 27.516 244.358 26.454 244.358 25.014C244.358 23.52 243.386 22.458 241.838 22.458Z" fill="white"/>
</g>
<defs>
<filter id="filter0_d_829_36724" x="0" y="0" width="376" height="70" filterUnits="userSpaceOnUse" color-interpolation-filters="sRGB">
<feFlood flood-opacity="0" result="BackgroundImageFix"/>
<feColorMatrix in="SourceAlpha" type="matrix" values="0 0 0 0 0 0 0 0 0 0 0 0 0 0 0 0 0 0 127 0" result="hardAlpha"/>
<feOffset dy="6"/>
<feGaussianBlur stdDeviation="4"/>
<feComposite in2="hardAlpha" operator="out"/>
<feColorMatrix type="matrix" values="0 0 0 0 0.0117647 0 0 0 0 0.780392 0 0 0 0 0.352941 0 0 0 0.3 0"/>
<feBlend mode="normal" in2="BackgroundImageFix" result="effect1_dropShadow_829_36724"/>
<feBlend mode="normal" in="SourceGraphic" in2="effect1_dropShadow_829_36724" result="shape"/>
</filter>
<clipPath id="clip0_829_36724">
<rect width="16" height="16" fill="white" transform="translate(123 21)"/>
</clipPath>
</defs>
</svg>
