<svg width="20" height="21" viewBox="0 0 20 21" fill="none" xmlns="http://www.w3.org/2000/svg">
<path d="M5.85355 3.14645C6.04882 3.34171 6.04882 3.65829 5.85355 3.85355L4.20711 5.5H11C14.3137 5.5 17 8.18629 17 11.5C17 14.8137 14.3137 17.5 11 17.5C7.68629 17.5 5 14.8137 5 11.5C5 11.2239 5.22386 11 5.5 11C5.77614 11 6 11.2239 6 11.5C6 14.2614 8.23858 16.5 11 16.5C13.7614 16.5 16 14.2614 16 11.5C16 8.73858 13.7614 6.5 11 6.5H4.20711L5.85355 8.14645C6.04882 8.34171 6.04882 8.65829 5.85355 8.85355C5.65829 9.04882 5.34171 9.04882 5.14645 8.85355L2.64645 6.35355C2.45118 6.15829 2.45118 5.84171 2.64645 5.64645L5.14645 3.14645C5.34171 2.95118 5.65829 2.95118 5.85355 3.14645Z" fill="#ECEFF0"/>
</svg>
