<svg width="24" height="24" viewBox="0 0 24 24" fill="none" xmlns="http://www.w3.org/2000/svg">
<path d="M9.20337 3.99882L9.25042 3.99756L9.29617 3.99877C9.31861 4.00006 9.34109 4.00239 9.36355 4.0058L9.37963 4.0096C9.46504 4.02332 9.54992 4.05383 9.63082 4.10175L9.68268 4.13529L14.753 7.70056L19.82 4.13864C20.2878 3.80985 20.9215 4.10537 20.9944 4.64772L21.0014 4.7522V15.3847C21.0014 15.5941 20.914 15.7921 20.7632 15.9329L20.6827 15.9983L15.1827 19.8647C14.9158 20.0523 14.5948 20.0366 14.3549 19.8878L9.25002 16.2966L4.18035 19.8613C3.71263 20.1901 3.07889 19.8946 3.00595 19.3523L2.99902 19.2478V8.61523C2.99902 8.40591 3.08638 8.20783 3.23714 8.06706L3.3177 8.00167L8.8177 4.13529C8.8817 4.0903 8.94882 4.057 9.01717 4.03442L9.13964 4.00642L9.20337 3.99882ZM19.5014 6.19621L15.5014 9.00812V17.8071L19.5014 14.9952V6.19621ZM8.49902 6.19287L4.49902 9.00478V17.8038L8.49902 14.9918V6.19287ZM10.0014 6.19287V14.9918L14.0014 17.8038V9.00478L10.0014 6.19287Z" fill="#D3FF4E"/>
</svg>
